<svg width="46" height="46" viewBox="0 0 46 46" fill="none" xmlns="http://www.w3.org/2000/svg">
<path d="M23.0498 3.83301C13.6714 3.8318 5.6768 10.6333 4.17525 19.8907C2.67371 29.1481 8.10863 38.1279 17.0066 41.0911C17.9649 41.2636 18.308 40.6752 18.308 40.1692C18.308 39.7149 18.2927 38.5113 18.2869 36.9108C12.9682 38.0608 11.845 34.3463 11.845 34.3463C11.4948 33.1905 10.7421 32.1984 9.72324 31.5499C7.99824 30.3635 9.85549 30.3903 9.85549 30.3903C11.0835 30.5587 12.1642 31.2863 12.7822 32.3607C13.3054 33.3118 14.1867 34.0147 15.2304 34.313C16.2741 34.6114 17.3938 34.4806 18.3406 33.9496C18.4295 32.9798 18.861 32.0733 19.5577 31.3928C15.3142 30.9117 10.8522 29.271 10.8522 21.9436C10.8286 20.0484 11.5324 18.2162 12.8187 16.8242C12.2367 15.1745 12.3052 13.3651 13.0103 11.7642C13.0103 11.7642 14.6146 11.2486 18.2658 13.7211C21.3974 12.8624 24.7023 12.8624 27.8338 13.7211C31.487 11.2467 33.0893 11.7642 33.0893 11.7642C33.7977 13.3643 33.8663 15.175 33.281 16.8242C34.572 18.2161 35.2752 20.0531 35.2437 21.9513C35.2437 29.2978 30.7778 30.9117 26.519 31.3851C27.4377 32.3244 27.9088 33.6129 27.8127 34.9233C27.8127 37.4801 27.7897 39.5424 27.7897 40.1692C27.7897 40.6809 28.1309 41.2751 29.1065 41.0873C38.0007 38.119 43.4298 29.1387 41.9252 19.8838C40.4205 10.6288 32.4263 3.83086 23.0498 3.83301Z" fill="#2E3A59"/>
</svg>
