<svg width="24" height="24" viewBox="0 0 24 24" fill="none" xmlns="http://www.w3.org/2000/svg">
<g clip-path="url(#clip0_45454_403)">
<path d="M8 17L12 21L16 17" stroke="#B662D3" stroke-width="2" stroke-linecap="round" stroke-linejoin="round"/>
<path d="M12 12V21" stroke="#B662D3" stroke-width="2" stroke-linecap="round" stroke-linejoin="round"/>
<path d="M20.8801 18.0899C21.7494 17.4786 22.4014 16.6061 22.7413 15.5991C23.0813 14.5921 23.0915 13.503 22.7705 12.4898C22.4494 11.4766 21.8139 10.592 20.9561 9.96449C20.0983 9.33697 19.0629 8.9991 18.0001 8.99993H16.7401C16.4393 7.82781 15.8765 6.73918 15.0942 5.81601C14.3118 4.89285 13.3302 4.15919 12.2233 3.67029C11.1163 3.18138 9.9129 2.94996 8.70358 2.99345C7.49426 3.03694 6.31057 3.3542 5.24161 3.92136C4.17265 4.48851 3.24628 5.29078 2.53224 6.26776C1.81821 7.24474 1.33511 8.37098 1.11932 9.56168C0.903525 10.7524 0.960665 11.9765 1.28643 13.142C1.6122 14.3074 2.19811 15.3837 3.00005 16.2899" stroke="#B662D3" stroke-width="2" stroke-linecap="round" stroke-linejoin="round"/>
</g>
<defs>
<clipPath id="clip0_45454_403">
<rect width="24" height="24" fill="white"/>
</clipPath>
</defs>
</svg>
