<svg width="42" height="42" viewBox="0 0 42 42" fill="none" xmlns="http://www.w3.org/2000/svg">
<path d="M4.90068 37.2276C6.5685 37.2276 7.92051 35.8755 7.92051 34.2078C7.92051 32.5401 6.5685 31.188 4.90068 31.188C3.23289 31.188 1.88086 32.5401 1.88086 34.2078C1.88086 35.8755 3.23289 37.2276 4.90068 37.2276Z" stroke="#B662D3" stroke-width="3" stroke-linecap="round" stroke-linejoin="round"/>
<path d="M4.90137 31.1883V17.1973" stroke="#B662D3" stroke-width="3" stroke-linecap="round" stroke-linejoin="round"/>
<path d="M31.1835 20.4482C31.2117 21.0224 31.2279 21.6005 31.2279 22.1822C31.2279 23.6332 31.1268 25.0619 30.9909 26.4625C30.7047 29.4067 28.3574 31.786 25.4742 32.0803C24.0109 32.2297 22.5169 32.344 20.9987 32.344C19.4806 32.344 17.9865 32.2297 16.5233 32.0803C13.6401 31.786 11.2926 29.4067 11.0067 26.4625C10.8706 25.0619 10.7695 23.6332 10.7695 22.1822C10.7695 21.6005 10.7858 21.0224 10.814 20.4482" stroke="#B662D3" stroke-width="3" stroke-linecap="round" stroke-linejoin="round"/>
<path d="M3.02472 12.6886C1.50011 13.6454 1.50101 15.0169 3.01878 15.9764C5.11995 17.3047 7.29228 18.684 9.81648 19.9482C12.3407 21.2124 15.0947 22.3004 17.7469 23.3527C19.6625 24.1129 22.4011 24.1133 24.3113 23.3497C26.9431 22.2977 29.6689 21.2067 32.1816 19.9482C34.6944 18.6897 36.873 17.3245 38.9733 16.0064C40.4979 15.0497 40.497 13.6782 38.9793 12.7187C36.8781 11.3905 34.7058 10.0111 32.1816 8.74691C29.6574 7.48268 26.9034 6.3947 24.2513 5.34236C22.3356 4.58222 19.5971 4.58177 17.6868 5.34533C15.0551 6.39734 12.3293 7.48841 9.81648 8.74691C7.30371 10.0054 5.12523 11.3706 3.02472 12.6886Z" stroke="#B662D3" stroke-width="3" stroke-linecap="round" stroke-linejoin="round"/>
</svg>
