<svg width="401" height="227" viewBox="0 0 401 227" fill="none" xmlns="http://www.w3.org/2000/svg">
<path d="M2.702 72V55.67H13.673V58.453H5.876V62.662H12.362V65.238H5.876V72H2.702ZM15.61 72V59.948H18.692V72H15.61ZM15.61 58.269V55.21H18.692V58.269H15.61ZM21.4493 55.21H24.5313V68.136C24.5313 68.688 24.6233 69.0637 24.8073 69.263C24.9913 69.447 25.2443 69.539 25.5663 69.539C25.8117 69.539 26.0647 69.5083 26.3253 69.447C26.586 69.3857 26.816 69.309 27.0153 69.217L27.4293 71.563C27.0153 71.7623 26.5323 71.9157 25.9803 72.023C25.4283 72.1303 24.93 72.184 24.4853 72.184C23.5193 72.184 22.768 71.931 22.2313 71.425C21.71 70.9037 21.4493 70.1677 21.4493 69.217V55.21ZM47.4941 72H44.4121V65.238C44.4121 64.2873 44.2435 63.5897 43.9061 63.145C43.5841 62.685 43.1318 62.455 42.5491 62.455C41.9511 62.455 41.3761 62.6927 40.8241 63.168C40.2875 63.628 39.9041 64.2337 39.6741 64.985V72H36.5921V65.238C36.5921 64.272 36.4235 63.5667 36.0861 63.122C35.7641 62.6773 35.3118 62.455 34.7291 62.455C34.1311 62.455 33.5561 62.685 33.0041 63.145C32.4675 63.605 32.0841 64.2107 31.8541 64.962V72H28.7721V59.948H31.5551V62.179C32.0151 61.397 32.6285 60.799 33.3951 60.385C34.1618 59.9557 35.0435 59.741 36.0401 59.741C37.0368 59.741 37.8111 59.9863 38.3631 60.477C38.9305 60.9677 39.2908 61.5733 39.4441 62.294C39.9348 61.466 40.5558 60.8373 41.3071 60.408C42.0738 59.9633 42.9325 59.741 43.8831 59.741C44.6345 59.741 45.2401 59.879 45.7001 60.155C46.1755 60.4157 46.5435 60.776 46.8041 61.236C47.0648 61.6807 47.2411 62.1867 47.3331 62.754C47.4405 63.3213 47.4941 63.8963 47.4941 64.479V72ZM55.7664 72.23C54.8004 72.23 53.9264 72.069 53.1444 71.747C52.3624 71.4097 51.6954 70.9573 51.1434 70.39C50.5914 69.8073 50.1621 69.148 49.8554 68.412C49.5641 67.6607 49.4184 66.871 49.4184 66.043C49.4184 64.893 49.6714 63.8427 50.1774 62.892C50.6987 61.9413 51.4347 61.1823 52.3854 60.615C53.3514 60.0323 54.4861 59.741 55.7894 59.741C57.1081 59.741 58.2351 60.0323 59.1704 60.615C60.1057 61.1823 60.8187 61.9413 61.3094 62.892C61.8154 63.8273 62.0684 64.8393 62.0684 65.928C62.0684 66.112 62.0607 66.3037 62.0454 66.503C62.0301 66.687 62.0147 66.8403 61.9994 66.963H52.6844C52.7457 67.5763 52.9221 68.113 53.2134 68.573C53.5201 69.033 53.9034 69.3857 54.3634 69.631C54.8387 69.861 55.3447 69.976 55.8814 69.976C56.4947 69.976 57.0697 69.8303 57.6064 69.539C58.1584 69.2323 58.5341 68.8337 58.7334 68.343L61.3784 69.079C61.0871 69.6923 60.6654 70.2367 60.1134 70.712C59.5767 71.1873 58.9404 71.563 58.2044 71.839C57.4684 72.0997 56.6557 72.23 55.7664 72.23ZM52.6154 65.008H58.9174C58.8561 64.3947 58.6797 63.8657 58.3884 63.421C58.1124 62.961 57.7444 62.6083 57.2844 62.363C56.8244 62.1023 56.3107 61.972 55.7434 61.972C55.1914 61.972 54.6854 62.1023 54.2254 62.363C53.7807 62.6083 53.4127 62.961 53.1214 63.421C52.8454 63.8657 52.6767 64.3947 52.6154 65.008ZM68.385 72.23C67.3576 72.23 66.3763 72.0613 65.441 71.724C64.5056 71.3867 63.7006 70.8883 63.026 70.229L64.13 68.228C64.8506 68.8107 65.556 69.24 66.246 69.516C66.9513 69.792 67.626 69.93 68.27 69.93C68.868 69.93 69.3433 69.8227 69.696 69.608C70.064 69.3933 70.248 69.0713 70.248 68.642C70.248 68.3507 70.1483 68.1283 69.949 67.975C69.7496 67.8063 69.4583 67.6607 69.075 67.538C68.707 67.4153 68.2546 67.2773 67.718 67.124C66.8286 66.8327 66.085 66.549 65.487 66.273C64.889 65.997 64.4366 65.652 64.13 65.238C63.8386 64.8087 63.693 64.2643 63.693 63.605C63.693 62.8077 63.8923 62.1253 64.291 61.558C64.705 60.9753 65.2723 60.523 65.993 60.201C66.729 59.879 67.5876 59.718 68.569 59.718C69.4276 59.718 70.2403 59.856 71.007 60.132C71.7736 60.3927 72.4713 60.822 73.1 61.42L71.858 63.375C71.2446 62.8997 70.662 62.5547 70.11 62.34C69.558 62.11 68.9983 61.995 68.431 61.995C68.109 61.995 67.8023 62.0333 67.511 62.11C67.235 62.1867 67.005 62.317 66.821 62.501C66.6523 62.6697 66.568 62.915 66.568 63.237C66.568 63.5283 66.6446 63.7583 66.798 63.927C66.9666 64.0803 67.212 64.2183 67.534 64.341C67.8713 64.4637 68.2776 64.6017 68.753 64.755C69.719 65.031 70.5316 65.3147 71.191 65.606C71.8656 65.8973 72.3716 66.2577 72.709 66.687C73.0463 67.101 73.215 67.676 73.215 68.412C73.215 69.608 72.778 70.5433 71.904 71.218C71.03 71.8927 69.857 72.23 68.385 72.23Z" fill="#464646" fill-opacity="0.7"/>
<path d="M249.381 55.67L253.797 68.228L258.167 55.67H261.502L255.315 72H252.256L246.046 55.67H249.381ZM262.946 72V59.948H266.028V72H262.946ZM262.946 58.269V55.21H266.028V58.269H262.946ZM267.98 68.435C267.98 67.653 268.195 66.9707 268.624 66.388C269.069 65.79 269.682 65.33 270.464 65.008C271.246 64.686 272.143 64.525 273.155 64.525C273.661 64.525 274.175 64.5633 274.696 64.64C275.218 64.7167 275.67 64.8393 276.053 65.008V64.364C276.053 63.5973 275.823 63.007 275.363 62.593C274.919 62.179 274.252 61.972 273.362 61.972C272.703 61.972 272.074 62.087 271.476 62.317C270.878 62.547 270.25 62.8843 269.59 63.329L268.601 61.305C269.399 60.7837 270.211 60.3927 271.039 60.132C271.883 59.8713 272.764 59.741 273.684 59.741C275.402 59.741 276.736 60.1703 277.686 61.029C278.652 61.8877 279.135 63.1143 279.135 64.709V68.55C279.135 68.872 279.189 69.102 279.296 69.24C279.419 69.378 279.611 69.4623 279.871 69.493V72C279.595 72.046 279.342 72.0843 279.112 72.115C278.898 72.1457 278.714 72.161 278.56 72.161C277.947 72.161 277.479 72.023 277.157 71.747C276.851 71.471 276.659 71.1337 276.582 70.735L276.513 70.114C275.992 70.7887 275.34 71.31 274.558 71.678C273.776 72.046 272.979 72.23 272.166 72.23C271.369 72.23 270.648 72.069 270.004 71.747C269.376 71.4097 268.877 70.9573 268.509 70.39C268.157 69.8073 267.98 69.1557 267.98 68.435ZM275.478 69.056C275.647 68.872 275.785 68.688 275.892 68.504C276 68.32 276.053 68.1513 276.053 67.998V66.779C275.685 66.6257 275.287 66.5107 274.857 66.434C274.428 66.342 274.022 66.296 273.638 66.296C272.841 66.296 272.182 66.4723 271.66 66.825C271.154 67.1623 270.901 67.6147 270.901 68.182C270.901 68.4887 270.986 68.78 271.154 69.056C271.323 69.332 271.568 69.5543 271.89 69.723C272.212 69.8917 272.596 69.976 273.04 69.976C273.5 69.976 273.953 69.8917 274.397 69.723C274.842 69.539 275.202 69.3167 275.478 69.056ZM281.026 76.508C280.459 76.508 279.915 76.416 279.393 76.232C278.872 76.0633 278.397 75.795 277.967 75.427L279.301 73.334C279.47 73.518 279.677 73.6483 279.922 73.725C280.168 73.8017 280.413 73.84 280.658 73.84C280.934 73.84 281.18 73.771 281.394 73.633C281.624 73.5103 281.801 73.334 281.923 73.104C282.061 72.874 282.13 72.6133 282.13 72.322V59.948H285.212V72.092C285.212 72.9507 285.021 73.7173 284.637 74.392C284.269 75.0667 283.771 75.588 283.142 75.956C282.529 76.324 281.824 76.508 281.026 76.508ZM282.13 58.269V55.21H285.212V58.269H282.13ZM287.184 68.435C287.184 67.653 287.399 66.9707 287.828 66.388C288.273 65.79 288.886 65.33 289.668 65.008C290.45 64.686 291.347 64.525 292.359 64.525C292.865 64.525 293.379 64.5633 293.9 64.64C294.422 64.7167 294.874 64.8393 295.257 65.008V64.364C295.257 63.5973 295.027 63.007 294.567 62.593C294.123 62.179 293.456 61.972 292.566 61.972C291.907 61.972 291.278 62.087 290.68 62.317C290.082 62.547 289.454 62.8843 288.794 63.329L287.805 61.305C288.603 60.7837 289.415 60.3927 290.243 60.132C291.087 59.8713 291.968 59.741 292.888 59.741C294.606 59.741 295.94 60.1703 296.89 61.029C297.856 61.8877 298.339 63.1143 298.339 64.709V68.55C298.339 68.872 298.393 69.102 298.5 69.24C298.623 69.378 298.815 69.4623 299.075 69.493V72C298.799 72.046 298.546 72.0843 298.316 72.115C298.102 72.1457 297.918 72.161 297.764 72.161C297.151 72.161 296.683 72.023 296.361 71.747C296.055 71.471 295.863 71.1337 295.786 70.735L295.717 70.114C295.196 70.7887 294.544 71.31 293.762 71.678C292.98 72.046 292.183 72.23 291.37 72.23C290.573 72.23 289.852 72.069 289.208 71.747C288.58 71.4097 288.081 70.9573 287.713 70.39C287.361 69.8073 287.184 69.1557 287.184 68.435ZM294.682 69.056C294.851 68.872 294.989 68.688 295.096 68.504C295.204 68.32 295.257 68.1513 295.257 67.998V66.779C294.889 66.6257 294.491 66.5107 294.061 66.434C293.632 66.342 293.226 66.296 292.842 66.296C292.045 66.296 291.386 66.4723 290.864 66.825C290.358 67.1623 290.105 67.6147 290.105 68.182C290.105 68.4887 290.19 68.78 290.358 69.056C290.527 69.332 290.772 69.5543 291.094 69.723C291.416 69.8917 291.8 69.976 292.244 69.976C292.704 69.976 293.157 69.8917 293.601 69.723C294.046 69.539 294.406 69.3167 294.682 69.056ZM308.395 62.616C307.46 62.616 306.624 62.8 305.888 63.168C305.152 63.5207 304.623 64.0343 304.301 64.709V72H301.219V59.948H304.048V62.524C304.478 61.696 305.022 61.0443 305.681 60.569C306.341 60.0937 307.038 59.833 307.774 59.787C307.943 59.787 308.073 59.787 308.165 59.787C308.257 59.787 308.334 59.7947 308.395 59.81V62.616Z" fill="#464646" fill-opacity="0.7"/>
<path d="M0.713 213.72C0.713 212.723 0.889333 211.75 1.242 210.799C1.61 209.833 2.139 208.959 2.829 208.177C3.519 207.38 4.36233 206.751 5.359 206.291C6.35567 205.816 7.49033 205.578 8.763 205.578C10.2657 205.578 11.5613 205.908 12.65 206.567C13.754 207.226 14.5743 208.085 15.111 209.143L12.673 210.822C12.397 210.209 12.0367 209.726 11.592 209.373C11.1473 209.005 10.672 208.752 10.166 208.614C9.66 208.461 9.16167 208.384 8.671 208.384C7.87367 208.384 7.176 208.545 6.578 208.867C5.99533 209.189 5.50467 209.611 5.106 210.132C4.70733 210.653 4.40833 211.236 4.209 211.88C4.025 212.524 3.933 213.168 3.933 213.812C3.933 214.533 4.048 215.23 4.278 215.905C4.508 216.564 4.83 217.155 5.244 217.676C5.67333 218.182 6.17933 218.588 6.762 218.895C7.36 219.186 8.01167 219.332 8.717 219.332C9.223 219.332 9.73667 219.248 10.258 219.079C10.7793 218.91 11.2623 218.642 11.707 218.274C12.1517 217.906 12.4967 217.431 12.742 216.848L15.341 218.343C15.019 219.156 14.49 219.846 13.754 220.413C13.0333 220.98 12.2207 221.41 11.316 221.701C10.4113 221.992 9.51433 222.138 8.625 222.138C7.45967 222.138 6.394 221.9 5.428 221.425C4.462 220.934 3.62633 220.29 2.921 219.493C2.231 218.68 1.68667 217.776 1.288 216.779C0.904667 215.767 0.713 214.747 0.713 213.72ZM16.3426 218.435C16.3426 217.653 16.5572 216.971 16.9866 216.388C17.4312 215.79 18.0446 215.33 18.8266 215.008C19.6086 214.686 20.5056 214.525 21.5176 214.525C22.0236 214.525 22.5372 214.563 23.0586 214.64C23.5799 214.717 24.0322 214.839 24.4156 215.008V214.364C24.4156 213.597 24.1856 213.007 23.7256 212.593C23.2809 212.179 22.6139 211.972 21.7246 211.972C21.0652 211.972 20.4366 212.087 19.8386 212.317C19.2406 212.547 18.6119 212.884 17.9526 213.329L16.9636 211.305C17.7609 210.784 18.5736 210.393 19.4016 210.132C20.2449 209.871 21.1266 209.741 22.0466 209.741C23.7639 209.741 25.0979 210.17 26.0486 211.029C27.0146 211.888 27.4976 213.114 27.4976 214.709V218.55C27.4976 218.872 27.5512 219.102 27.6586 219.24C27.7812 219.378 27.9729 219.462 28.2336 219.493V222C27.9576 222.046 27.7046 222.084 27.4746 222.115C27.2599 222.146 27.0759 222.161 26.9226 222.161C26.3092 222.161 25.8416 222.023 25.5196 221.747C25.2129 221.471 25.0212 221.134 24.9446 220.735L24.8756 220.114C24.3542 220.789 23.7026 221.31 22.9206 221.678C22.1386 222.046 21.3412 222.23 20.5286 222.23C19.7312 222.23 19.0106 222.069 18.3666 221.747C17.7379 221.41 17.2396 220.957 16.8716 220.39C16.5189 219.807 16.3426 219.156 16.3426 218.435ZM23.8406 219.056C24.0092 218.872 24.1472 218.688 24.2546 218.504C24.3619 218.32 24.4156 218.151 24.4156 217.998V216.779C24.0476 216.626 23.6489 216.511 23.2196 216.434C22.7902 216.342 22.3839 216.296 22.0006 216.296C21.2032 216.296 20.5439 216.472 20.0226 216.825C19.5166 217.162 19.2636 217.615 19.2636 218.182C19.2636 218.489 19.3479 218.78 19.5166 219.056C19.6852 219.332 19.9306 219.554 20.2526 219.723C20.5746 219.892 20.9579 219.976 21.4026 219.976C21.8626 219.976 22.3149 219.892 22.7596 219.723C23.2042 219.539 23.5646 219.317 23.8406 219.056ZM49.0996 222H46.0176V215.238C46.0176 214.287 45.8489 213.59 45.5116 213.145C45.1896 212.685 44.7373 212.455 44.1546 212.455C43.5566 212.455 42.9816 212.693 42.4296 213.168C41.8929 213.628 41.5096 214.234 41.2796 214.985V222H38.1976V215.238C38.1976 214.272 38.0289 213.567 37.6916 213.122C37.3696 212.677 36.9173 212.455 36.3346 212.455C35.7366 212.455 35.1616 212.685 34.6096 213.145C34.0729 213.605 33.6896 214.211 33.4596 214.962V222H30.3776V209.948H33.1606V212.179C33.6206 211.397 34.2339 210.799 35.0006 210.385C35.7673 209.956 36.6489 209.741 37.6456 209.741C38.6423 209.741 39.4166 209.986 39.9686 210.477C40.5359 210.968 40.8963 211.573 41.0496 212.294C41.5403 211.466 42.1613 210.837 42.9126 210.408C43.6793 209.963 44.5379 209.741 45.4886 209.741C46.2399 209.741 46.8456 209.879 47.3056 210.155C47.7809 210.416 48.1489 210.776 48.4096 211.236C48.6703 211.681 48.8466 212.187 48.9386 212.754C49.0459 213.321 49.0996 213.896 49.0996 214.479V222ZM51.7829 222V209.948H54.8649V222H51.7829ZM51.7829 208.269V205.21H54.8649V208.269H51.7829ZM68.8462 222H65.7642V215.238C65.7642 214.272 65.5955 213.567 65.2582 213.122C64.9209 212.677 64.4532 212.455 63.8552 212.455C63.4412 212.455 63.0195 212.562 62.5902 212.777C62.1762 212.992 61.8005 213.291 61.4632 213.674C61.1259 214.042 60.8805 214.471 60.7272 214.962V222H57.6452V209.948H60.4282V212.179C60.7349 211.658 61.1259 211.221 61.6012 210.868C62.0765 210.5 62.6209 210.224 63.2342 210.04C63.8629 209.841 64.5222 209.741 65.2122 209.741C65.9635 209.741 66.5769 209.879 67.0522 210.155C67.5429 210.416 67.9109 210.776 68.1562 211.236C68.4169 211.681 68.5932 212.187 68.6852 212.754C68.7925 213.321 68.8462 213.896 68.8462 214.479V222ZM82.727 222H79.645V215.238C79.645 214.303 79.461 213.605 79.093 213.145C78.7404 212.685 78.2497 212.455 77.621 212.455C77.253 212.455 76.862 212.562 76.448 212.777C76.034 212.992 75.6584 213.291 75.321 213.674C74.999 214.042 74.7614 214.471 74.608 214.962V222H71.526V205.21H74.608V212.179C75.0527 211.412 75.6584 210.814 76.425 210.385C77.1917 209.956 78.0274 209.741 78.932 209.741C79.714 209.741 80.3504 209.879 80.841 210.155C81.3317 210.416 81.715 210.776 81.991 211.236C82.267 211.681 82.4587 212.187 82.566 212.754C82.6734 213.306 82.727 213.881 82.727 214.479V222ZM84.5789 218.435C84.5789 217.653 84.7936 216.971 85.2229 216.388C85.6676 215.79 86.2809 215.33 87.0629 215.008C87.8449 214.686 88.7419 214.525 89.7539 214.525C90.2599 214.525 90.7736 214.563 91.2949 214.64C91.8162 214.717 92.2686 214.839 92.6519 215.008V214.364C92.6519 213.597 92.4219 213.007 91.9619 212.593C91.5172 212.179 90.8502 211.972 89.9609 211.972C89.3016 211.972 88.6729 212.087 88.0749 212.317C87.4769 212.547 86.8482 212.884 86.1889 213.329L85.1999 211.305C85.9972 210.784 86.8099 210.393 87.6379 210.132C88.4812 209.871 89.3629 209.741 90.2829 209.741C92.0002 209.741 93.3342 210.17 94.2849 211.029C95.2509 211.888 95.7339 213.114 95.7339 214.709V218.55C95.7339 218.872 95.7876 219.102 95.8949 219.24C96.0176 219.378 96.2092 219.462 96.4699 219.493V222C96.1939 222.046 95.9409 222.084 95.7109 222.115C95.4962 222.146 95.3122 222.161 95.1589 222.161C94.5456 222.161 94.0779 222.023 93.7559 221.747C93.4492 221.471 93.2576 221.134 93.1809 220.735L93.1119 220.114C92.5906 220.789 91.9389 221.31 91.1569 221.678C90.3749 222.046 89.5776 222.23 88.7649 222.23C87.9676 222.23 87.2469 222.069 86.6029 221.747C85.9742 221.41 85.4759 220.957 85.1079 220.39C84.7552 219.807 84.5789 219.156 84.5789 218.435ZM92.0769 219.056C92.2456 218.872 92.3836 218.688 92.4909 218.504C92.5982 218.32 92.6519 218.151 92.6519 217.998V216.779C92.2839 216.626 91.8852 216.511 91.4559 216.434C91.0266 216.342 90.6202 216.296 90.2369 216.296C89.4396 216.296 88.7802 216.472 88.2589 216.825C87.7529 217.162 87.4999 217.615 87.4999 218.182C87.4999 218.489 87.5842 218.78 87.7529 219.056C87.9216 219.332 88.1669 219.554 88.4889 219.723C88.8109 219.892 89.1942 219.976 89.6389 219.976C90.0989 219.976 90.5512 219.892 90.9959 219.723C91.4406 219.539 91.8009 219.317 92.0769 219.056ZM97.8779 215.974C97.8779 214.809 98.1079 213.758 98.5679 212.823C99.0279 211.872 99.6643 211.121 100.477 210.569C101.29 210.017 102.217 209.741 103.26 209.741C104.149 209.741 104.947 209.963 105.652 210.408C106.373 210.837 106.932 211.389 107.331 212.064V205.21H110.413V218.55C110.413 218.872 110.467 219.102 110.574 219.24C110.681 219.378 110.865 219.462 111.126 219.493V222C110.589 222.107 110.152 222.161 109.815 222.161C109.263 222.161 108.803 222.023 108.435 221.747C108.082 221.471 107.883 221.111 107.837 220.666L107.791 219.907C107.346 220.658 106.741 221.233 105.974 221.632C105.223 222.031 104.433 222.23 103.605 222.23C102.777 222.23 102.01 222.069 101.305 221.747C100.615 221.425 100.009 220.98 99.4879 220.413C98.9819 219.846 98.5833 219.186 98.2919 218.435C98.0159 217.668 97.8779 216.848 97.8779 215.974ZM107.331 217.584V214.709C107.178 214.264 106.932 213.866 106.595 213.513C106.258 213.16 105.882 212.884 105.468 212.685C105.054 212.47 104.64 212.363 104.226 212.363C103.751 212.363 103.321 212.463 102.938 212.662C102.555 212.861 102.217 213.13 101.926 213.467C101.65 213.804 101.435 214.195 101.282 214.64C101.144 215.085 101.075 215.552 101.075 216.043C101.075 216.534 101.152 217.001 101.305 217.446C101.474 217.875 101.711 218.251 102.018 218.573C102.325 218.895 102.677 219.148 103.076 219.332C103.49 219.516 103.935 219.608 104.41 219.608C104.701 219.608 104.993 219.562 105.284 219.47C105.591 219.363 105.874 219.225 106.135 219.056C106.411 218.872 106.649 218.657 106.848 218.412C107.063 218.151 107.224 217.875 107.331 217.584ZM112.61 218.435C112.61 217.653 112.825 216.971 113.254 216.388C113.699 215.79 114.312 215.33 115.094 215.008C115.876 214.686 116.773 214.525 117.785 214.525C118.291 214.525 118.805 214.563 119.326 214.64C119.847 214.717 120.3 214.839 120.683 215.008V214.364C120.683 213.597 120.453 213.007 119.993 212.593C119.548 212.179 118.881 211.972 117.992 211.972C117.333 211.972 116.704 212.087 116.106 212.317C115.508 212.547 114.879 212.884 114.22 213.329L113.231 211.305C114.028 210.784 114.841 210.393 115.669 210.132C116.512 209.871 117.394 209.741 118.314 209.741C120.031 209.741 121.365 210.17 122.316 211.029C123.282 211.888 123.765 213.114 123.765 214.709V218.55C123.765 218.872 123.819 219.102 123.926 219.24C124.049 219.378 124.24 219.462 124.501 219.493V222C124.225 222.046 123.972 222.084 123.742 222.115C123.527 222.146 123.343 222.161 123.19 222.161C122.577 222.161 122.109 222.023 121.787 221.747C121.48 221.471 121.289 221.134 121.212 220.735L121.143 220.114C120.622 220.789 119.97 221.31 119.188 221.678C118.406 222.046 117.609 222.23 116.796 222.23C115.999 222.23 115.278 222.069 114.634 221.747C114.005 221.41 113.507 220.957 113.139 220.39C112.786 219.807 112.61 219.156 112.61 218.435ZM120.108 219.056C120.277 218.872 120.415 218.688 120.522 218.504C120.629 218.32 120.683 218.151 120.683 217.998V216.779C120.315 216.626 119.916 216.511 119.487 216.434C119.058 216.342 118.651 216.296 118.268 216.296C117.471 216.296 116.811 216.472 116.29 216.825C115.784 217.162 115.531 217.615 115.531 218.182C115.531 218.489 115.615 218.78 115.784 219.056C115.953 219.332 116.198 219.554 116.52 219.723C116.842 219.892 117.225 219.976 117.67 219.976C118.13 219.976 118.582 219.892 119.027 219.723C119.472 219.539 119.832 219.317 120.108 219.056ZM131.084 222.23C130.057 222.23 129.076 222.061 128.14 221.724C127.205 221.387 126.4 220.888 125.725 220.229L126.829 218.228C127.55 218.811 128.255 219.24 128.945 219.516C129.651 219.792 130.325 219.93 130.969 219.93C131.567 219.93 132.043 219.823 132.395 219.608C132.763 219.393 132.947 219.071 132.947 218.642C132.947 218.351 132.848 218.128 132.648 217.975C132.449 217.806 132.158 217.661 131.774 217.538C131.406 217.415 130.954 217.277 130.417 217.124C129.528 216.833 128.784 216.549 128.186 216.273C127.588 215.997 127.136 215.652 126.829 215.238C126.538 214.809 126.392 214.264 126.392 213.605C126.392 212.808 126.592 212.125 126.99 211.558C127.404 210.975 127.972 210.523 128.692 210.201C129.428 209.879 130.287 209.718 131.268 209.718C132.127 209.718 132.94 209.856 133.706 210.132C134.473 210.393 135.171 210.822 135.799 211.42L134.557 213.375C133.944 212.9 133.361 212.555 132.809 212.34C132.257 212.11 131.698 211.995 131.13 211.995C130.808 211.995 130.502 212.033 130.21 212.11C129.934 212.187 129.704 212.317 129.52 212.501C129.352 212.67 129.267 212.915 129.267 213.237C129.267 213.528 129.344 213.758 129.497 213.927C129.666 214.08 129.911 214.218 130.233 214.341C130.571 214.464 130.977 214.602 131.452 214.755C132.418 215.031 133.231 215.315 133.89 215.606C134.565 215.897 135.071 216.258 135.408 216.687C135.746 217.101 135.914 217.676 135.914 218.412C135.914 219.608 135.477 220.543 134.603 221.218C133.729 221.893 132.556 222.23 131.084 222.23Z" fill="#464646" fill-opacity="0.7"/>
<path d="M250.876 211.512V222H247.702V205.67H250.232L258.673 216.434V205.693H261.847V222H259.202L250.876 211.512ZM263.982 218.435C263.982 217.653 264.197 216.971 264.626 216.388C265.071 215.79 265.684 215.33 266.466 215.008C267.248 214.686 268.145 214.525 269.157 214.525C269.663 214.525 270.177 214.563 270.698 214.64C271.22 214.717 271.672 214.839 272.055 215.008V214.364C272.055 213.597 271.825 213.007 271.365 212.593C270.921 212.179 270.254 211.972 269.364 211.972C268.705 211.972 268.076 212.087 267.478 212.317C266.88 212.547 266.252 212.884 265.592 213.329L264.603 211.305C265.401 210.784 266.213 210.393 267.041 210.132C267.885 209.871 268.766 209.741 269.686 209.741C271.404 209.741 272.738 210.17 273.688 211.029C274.654 211.888 275.137 213.114 275.137 214.709V218.55C275.137 218.872 275.191 219.102 275.298 219.24C275.421 219.378 275.613 219.462 275.873 219.493V222C275.597 222.046 275.344 222.084 275.114 222.115C274.9 222.146 274.716 222.161 274.562 222.161C273.949 222.161 273.481 222.023 273.159 221.747C272.853 221.471 272.661 221.134 272.584 220.735L272.515 220.114C271.994 220.789 271.342 221.31 270.56 221.678C269.778 222.046 268.981 222.23 268.168 222.23C267.371 222.23 266.65 222.069 266.006 221.747C265.378 221.41 264.879 220.957 264.511 220.39C264.159 219.807 263.982 219.156 263.982 218.435ZM271.48 219.056C271.649 218.872 271.787 218.688 271.894 218.504C272.002 218.32 272.055 218.151 272.055 217.998V216.779C271.687 216.626 271.289 216.511 270.859 216.434C270.43 216.342 270.024 216.296 269.64 216.296C268.843 216.296 268.184 216.472 267.662 216.825C267.156 217.162 266.903 217.615 266.903 218.182C266.903 218.489 266.988 218.78 267.156 219.056C267.325 219.332 267.57 219.554 267.892 219.723C268.214 219.892 268.598 219.976 269.042 219.976C269.502 219.976 269.955 219.892 270.399 219.723C270.844 219.539 271.204 219.317 271.48 219.056ZM285.127 221.379C284.866 221.486 284.552 221.609 284.184 221.747C283.816 221.885 283.417 221.992 282.988 222.069C282.574 222.161 282.152 222.207 281.723 222.207C281.156 222.207 280.634 222.107 280.159 221.908C279.684 221.709 279.3 221.394 279.009 220.965C278.733 220.52 278.595 219.945 278.595 219.24V212.317H277.008V209.948H278.595V206.038H281.677V209.948H284.207V212.317H281.677V218.205C281.692 218.619 281.807 218.918 282.022 219.102C282.237 219.286 282.505 219.378 282.827 219.378C283.149 219.378 283.463 219.324 283.77 219.217C284.077 219.11 284.322 219.018 284.506 218.941L285.127 221.379ZM286.617 217.492V209.948H289.699V216.825C289.699 217.745 289.868 218.443 290.205 218.918C290.542 219.378 291.041 219.608 291.7 219.608C292.099 219.608 292.49 219.531 292.873 219.378C293.272 219.209 293.632 218.964 293.954 218.642C294.291 218.32 294.575 217.914 294.805 217.423V209.948H297.887V218.55C297.887 218.872 297.941 219.102 298.048 219.24C298.171 219.378 298.362 219.462 298.623 219.493V222C298.316 222.046 298.056 222.077 297.841 222.092C297.642 222.123 297.458 222.138 297.289 222.138C296.737 222.138 296.285 222.015 295.932 221.77C295.595 221.509 295.395 221.157 295.334 220.712L295.265 219.746C294.728 220.559 294.038 221.18 293.195 221.609C292.352 222.023 291.424 222.23 290.412 222.23C289.17 222.23 288.227 221.831 287.583 221.034C286.939 220.221 286.617 219.041 286.617 217.492ZM308.126 212.616C307.191 212.616 306.355 212.8 305.619 213.168C304.883 213.521 304.354 214.034 304.032 214.709V222H300.95V209.948H303.779V212.524C304.208 211.696 304.753 211.044 305.412 210.569C306.071 210.094 306.769 209.833 307.505 209.787C307.674 209.787 307.804 209.787 307.896 209.787C307.988 209.787 308.065 209.795 308.126 209.81V212.616ZM315.276 222.23C314.31 222.23 313.436 222.069 312.654 221.747C311.872 221.41 311.205 220.957 310.653 220.39C310.101 219.807 309.672 219.148 309.365 218.412C309.074 217.661 308.928 216.871 308.928 216.043C308.928 214.893 309.181 213.843 309.687 212.892C310.209 211.941 310.945 211.182 311.895 210.615C312.861 210.032 313.996 209.741 315.299 209.741C316.618 209.741 317.745 210.032 318.68 210.615C319.616 211.182 320.329 211.941 320.819 212.892C321.325 213.827 321.578 214.839 321.578 215.928C321.578 216.112 321.571 216.304 321.555 216.503C321.54 216.687 321.525 216.84 321.509 216.963H312.194C312.256 217.576 312.432 218.113 312.723 218.573C313.03 219.033 313.413 219.386 313.873 219.631C314.349 219.861 314.855 219.976 315.391 219.976C316.005 219.976 316.58 219.83 317.116 219.539C317.668 219.232 318.044 218.834 318.243 218.343L320.888 219.079C320.597 219.692 320.175 220.237 319.623 220.712C319.087 221.187 318.45 221.563 317.714 221.839C316.978 222.1 316.166 222.23 315.276 222.23ZM312.125 215.008H318.427C318.366 214.395 318.19 213.866 317.898 213.421C317.622 212.961 317.254 212.608 316.794 212.363C316.334 212.102 315.821 211.972 315.253 211.972C314.701 211.972 314.195 212.102 313.735 212.363C313.291 212.608 312.923 212.961 312.631 213.421C312.355 213.866 312.187 214.395 312.125 215.008ZM322.516 220.114L329.163 212.11H322.792V209.948H332.475V211.834L325.874 219.838H332.59V222H322.516V220.114ZM333.836 218.435C333.836 217.653 334.05 216.971 334.48 216.388C334.924 215.79 335.538 215.33 336.32 215.008C337.102 214.686 337.999 214.525 339.011 214.525C339.517 214.525 340.03 214.563 340.552 214.64C341.073 214.717 341.525 214.839 341.909 215.008V214.364C341.909 213.597 341.679 213.007 341.219 212.593C340.774 212.179 340.107 211.972 339.218 211.972C338.558 211.972 337.93 212.087 337.332 212.317C336.734 212.547 336.105 212.884 335.446 213.329L334.457 211.305C335.254 210.784 336.067 210.393 336.895 210.132C337.738 209.871 338.62 209.741 339.54 209.741C341.257 209.741 342.591 210.17 343.542 211.029C344.508 211.888 344.991 213.114 344.991 214.709V218.55C344.991 218.872 345.044 219.102 345.152 219.24C345.274 219.378 345.466 219.462 345.727 219.493V222C345.451 222.046 345.198 222.084 344.968 222.115C344.753 222.146 344.569 222.161 344.416 222.161C343.802 222.161 343.335 222.023 343.013 221.747C342.706 221.471 342.514 221.134 342.438 220.735L342.369 220.114C341.847 220.789 341.196 221.31 340.414 221.678C339.632 222.046 338.834 222.23 338.022 222.23C337.224 222.23 336.504 222.069 335.86 221.747C335.231 221.41 334.733 220.957 334.365 220.39C334.012 219.807 333.836 219.156 333.836 218.435ZM341.334 219.056C341.502 218.872 341.64 218.688 341.748 218.504C341.855 218.32 341.909 218.151 341.909 217.998V216.779C341.541 216.626 341.142 216.511 340.713 216.434C340.283 216.342 339.877 216.296 339.494 216.296C338.696 216.296 338.037 216.472 337.516 216.825C337.01 217.162 336.757 217.615 336.757 218.182C336.757 218.489 336.841 218.78 337.01 219.056C337.178 219.332 337.424 219.554 337.746 219.723C338.068 219.892 338.451 219.976 338.896 219.976C339.356 219.976 339.808 219.892 340.253 219.723C340.697 219.539 341.058 219.317 341.334 219.056Z" fill="#464646" fill-opacity="0.7"/>
<path d="M1.702 22V5.67H4.876V19.217H13.202V22H1.702ZM20.3338 22.23C19.3678 22.23 18.4938 22.069 17.7118 21.747C16.9298 21.4097 16.2628 20.9573 15.7108 20.39C15.1588 19.8073 14.7295 19.148 14.4228 18.412C14.1315 17.6607 13.9858 16.871 13.9858 16.043C13.9858 14.893 14.2388 13.8427 14.7448 12.892C15.2661 11.9413 16.0021 11.1823 16.9528 10.615C17.9188 10.0323 19.0535 9.741 20.3568 9.741C21.6755 9.741 22.8025 10.0323 23.7378 10.615C24.6731 11.1823 25.3861 11.9413 25.8768 12.892C26.3828 13.8273 26.6358 14.8393 26.6358 15.928C26.6358 16.112 26.6281 16.3037 26.6128 16.503C26.5975 16.687 26.5821 16.8403 26.5668 16.963H17.2518C17.3131 17.5763 17.4895 18.113 17.7808 18.573C18.0875 19.033 18.4708 19.3857 18.9308 19.631C19.4061 19.861 19.9121 19.976 20.4488 19.976C21.0621 19.976 21.6371 19.8303 22.1738 19.539C22.7258 19.2323 23.1015 18.8337 23.3008 18.343L25.9458 19.079C25.6545 19.6923 25.2328 20.2367 24.6808 20.712C24.1441 21.1873 23.5078 21.563 22.7718 21.839C22.0358 22.0997 21.2231 22.23 20.3338 22.23ZM17.1828 15.008H23.4848C23.4235 14.3947 23.2471 13.8657 22.9558 13.421C22.6798 12.961 22.3118 12.6083 21.8518 12.363C21.3918 12.1023 20.8781 11.972 20.3108 11.972C19.7588 11.972 19.2528 12.1023 18.7928 12.363C18.3481 12.6083 17.9801 12.961 17.6888 13.421C17.4128 13.8657 17.2441 14.3947 17.1828 15.008ZM28.5134 22V9.948H31.5954V22H28.5134ZM28.5134 8.269V5.21H31.5954V8.269H28.5134ZM41.5977 21.379C41.337 21.4863 41.0227 21.609 40.6547 21.747C40.2867 21.885 39.888 21.9923 39.4587 22.069C39.0447 22.161 38.623 22.207 38.1937 22.207C37.6263 22.207 37.105 22.1073 36.6297 21.908C36.1543 21.7087 35.771 21.3943 35.4797 20.965C35.2037 20.5203 35.0657 19.9453 35.0657 19.24V12.317H33.4787V9.948H35.0657V6.038H38.1477V9.948H40.6777V12.317H38.1477V18.205C38.163 18.619 38.278 18.918 38.4927 19.102C38.7073 19.286 38.9757 19.378 39.2977 19.378C39.6197 19.378 39.934 19.3243 40.2407 19.217C40.5473 19.1097 40.7927 19.0177 40.9767 18.941L41.5977 21.379ZM43.0878 17.492V9.948H46.1698V16.825C46.1698 17.745 46.3385 18.4427 46.6758 18.918C47.0131 19.378 47.5115 19.608 48.1708 19.608C48.5695 19.608 48.9605 19.5313 49.3438 19.378C49.7425 19.2093 50.1028 18.964 50.4248 18.642C50.7621 18.32 51.0458 17.9137 51.2758 17.423V9.948H54.3578V18.55C54.3578 18.872 54.4115 19.102 54.5188 19.24C54.6415 19.378 54.8331 19.4623 55.0938 19.493V22C54.7871 22.046 54.5265 22.0767 54.3118 22.092C54.1125 22.1227 53.9285 22.138 53.7598 22.138C53.2078 22.138 52.7555 22.0153 52.4028 21.77C52.0655 21.5093 51.8661 21.1567 51.8048 20.712L51.7358 19.746C51.1991 20.5587 50.5091 21.1797 49.6658 21.609C48.8225 22.023 47.8948 22.23 46.8828 22.23C45.6408 22.23 44.6978 21.8313 44.0538 21.034C43.4098 20.2213 43.0878 19.0407 43.0878 17.492ZM64.5966 12.616C63.6612 12.616 62.8256 12.8 62.0896 13.168C61.3536 13.5207 60.8246 14.0343 60.5026 14.709V22H57.4206V9.948H60.2496V12.524C60.6789 11.696 61.2232 11.0443 61.8826 10.569C62.5419 10.0937 63.2396 9.833 63.9756 9.787C64.1442 9.787 64.2746 9.787 64.3666 9.787C64.4586 9.787 64.5352 9.79467 64.5966 9.81V12.616ZM65.4197 18.435C65.4197 17.653 65.6344 16.9707 66.0637 16.388C66.5084 15.79 67.1217 15.33 67.9037 15.008C68.6857 14.686 69.5827 14.525 70.5947 14.525C71.1007 14.525 71.6144 14.5633 72.1357 14.64C72.6571 14.7167 73.1094 14.8393 73.4927 15.008V14.364C73.4927 13.5973 73.2627 13.007 72.8027 12.593C72.3581 12.179 71.6911 11.972 70.8017 11.972C70.1424 11.972 69.5137 12.087 68.9157 12.317C68.3177 12.547 67.6891 12.8843 67.0297 13.329L66.0407 11.305C66.8381 10.7837 67.6507 10.3927 68.4787 10.132C69.3221 9.87133 70.2037 9.741 71.1237 9.741C72.8411 9.741 74.1751 10.1703 75.1257 11.029C76.0917 11.8877 76.5747 13.1143 76.5747 14.709V18.55C76.5747 18.872 76.6284 19.102 76.7357 19.24C76.8584 19.378 77.0501 19.4623 77.3107 19.493V22C77.0347 22.046 76.7817 22.0843 76.5517 22.115C76.3371 22.1457 76.1531 22.161 75.9997 22.161C75.3864 22.161 74.9187 22.023 74.5967 21.747C74.2901 21.471 74.0984 21.1337 74.0217 20.735L73.9527 20.114C73.4314 20.7887 72.7797 21.31 71.9977 21.678C71.2157 22.046 70.4184 22.23 69.6057 22.23C68.8084 22.23 68.0877 22.069 67.4437 21.747C66.8151 21.4097 66.3167 20.9573 65.9487 20.39C65.5961 19.8073 65.4197 19.1557 65.4197 18.435ZM72.9177 19.056C73.0864 18.872 73.2244 18.688 73.3317 18.504C73.4391 18.32 73.4927 18.1513 73.4927 17.998V16.779C73.1247 16.6257 72.7261 16.5107 72.2967 16.434C71.8674 16.342 71.4611 16.296 71.0777 16.296C70.2804 16.296 69.6211 16.4723 69.0997 16.825C68.5937 17.1623 68.3407 17.6147 68.3407 18.182C68.3407 18.4887 68.4251 18.78 68.5937 19.056C68.7624 19.332 69.0077 19.5543 69.3297 19.723C69.6517 19.8917 70.0351 19.976 70.4797 19.976C70.9397 19.976 71.3921 19.8917 71.8367 19.723C72.2814 19.539 72.6417 19.3167 72.9177 19.056Z" fill="#464646" fill-opacity="0.7"/>
<path d="M245.874 18.665C246.073 18.803 246.426 18.9717 246.932 19.171C247.438 19.355 248.036 19.447 248.726 19.447C249.324 19.447 249.815 19.3473 250.198 19.148C250.581 18.9333 250.873 18.619 251.072 18.205C251.287 17.791 251.425 17.2543 251.486 16.595C251.563 15.9357 251.601 15.146 251.601 14.226V5.67H254.775V13.973C254.775 15.1997 254.706 16.319 254.568 17.331C254.43 18.343 254.162 19.217 253.763 19.953C253.364 20.689 252.759 21.2563 251.946 21.655C251.149 22.0537 250.083 22.253 248.749 22.253C248.013 22.253 247.354 22.1687 246.771 22C246.188 21.8313 245.652 21.5783 245.161 21.241L245.874 18.665ZM263.065 22.23C262.083 22.23 261.202 22.069 260.42 21.747C259.638 21.4097 258.971 20.9497 258.419 20.367C257.882 19.7843 257.468 19.1173 257.177 18.366C256.885 17.6147 256.74 16.825 256.74 15.997C256.74 15.1537 256.885 14.3563 257.177 13.605C257.468 12.8537 257.882 12.1867 258.419 11.604C258.971 11.0213 259.638 10.569 260.42 10.247C261.202 9.90967 262.083 9.741 263.065 9.741C264.046 9.741 264.92 9.90967 265.687 10.247C266.469 10.569 267.136 11.0213 267.688 11.604C268.24 12.1867 268.654 12.8537 268.93 13.605C269.221 14.3563 269.367 15.1537 269.367 15.997C269.367 16.825 269.221 17.6147 268.93 18.366C268.654 19.1173 268.24 19.7843 267.688 20.367C267.151 20.9497 266.492 21.4097 265.71 21.747C264.928 22.069 264.046 22.23 263.065 22.23ZM259.914 15.997C259.914 16.7023 260.052 17.331 260.328 17.883C260.604 18.4197 260.979 18.8413 261.455 19.148C261.93 19.4547 262.467 19.608 263.065 19.608C263.647 19.608 264.176 19.4547 264.652 19.148C265.127 18.826 265.503 18.3967 265.779 17.86C266.07 17.308 266.216 16.6793 266.216 15.974C266.216 15.284 266.07 14.663 265.779 14.111C265.503 13.559 265.127 13.1297 264.652 12.823C264.176 12.5163 263.647 12.363 263.065 12.363C262.467 12.363 261.93 12.524 261.455 12.846C260.979 13.1527 260.604 13.582 260.328 14.134C260.052 14.6707 259.914 15.2917 259.914 15.997ZM276.162 22.069C275.365 22.069 274.629 21.9157 273.954 21.609C273.295 21.287 272.72 20.8423 272.229 20.275C271.754 19.7077 271.386 19.056 271.125 18.32C270.864 17.584 270.734 16.802 270.734 15.974C270.734 15.1 270.872 14.2873 271.148 13.536C271.424 12.7847 271.807 12.1253 272.298 11.558C272.804 10.9753 273.394 10.5307 274.069 10.224C274.759 9.902 275.518 9.741 276.346 9.741C277.281 9.741 278.102 9.95567 278.807 10.385C279.512 10.799 280.095 11.3587 280.555 12.064V9.948H283.246V21.425C283.246 22.621 282.955 23.6407 282.372 24.484C281.805 25.3427 281.015 25.9943 280.003 26.439C278.991 26.899 277.841 27.129 276.553 27.129C275.25 27.129 274.146 26.9067 273.241 26.462C272.336 26.0327 271.562 25.4193 270.918 24.622L272.597 22.989C273.057 23.5563 273.632 24.001 274.322 24.323C275.027 24.645 275.771 24.806 276.553 24.806C277.212 24.806 277.81 24.6833 278.347 24.438C278.899 24.208 279.336 23.84 279.658 23.334C279.995 22.8433 280.164 22.207 280.164 21.425V19.907C279.765 20.597 279.198 21.1337 278.462 21.517C277.741 21.885 276.975 22.069 276.162 22.069ZM277.197 19.608C277.534 19.608 277.856 19.5543 278.163 19.447C278.47 19.3397 278.753 19.194 279.014 19.01C279.275 18.826 279.505 18.6113 279.704 18.366C279.903 18.1053 280.057 17.8447 280.164 17.584V14.709C279.98 14.2337 279.719 13.8197 279.382 13.467C279.06 13.1143 278.692 12.846 278.278 12.662C277.879 12.4627 277.458 12.363 277.013 12.363C276.538 12.363 276.108 12.4627 275.725 12.662C275.342 12.8613 275.012 13.145 274.736 13.513C274.46 13.8657 274.245 14.2643 274.092 14.709C273.954 15.1383 273.885 15.5907 273.885 16.066C273.885 16.5567 273.969 17.0167 274.138 17.446C274.307 17.8753 274.537 18.251 274.828 18.573C275.135 18.895 275.487 19.148 275.886 19.332C276.3 19.516 276.737 19.608 277.197 19.608ZM291.59 22.23C290.609 22.23 289.727 22.069 288.945 21.747C288.163 21.4097 287.496 20.9497 286.944 20.367C286.407 19.7843 285.993 19.1173 285.702 18.366C285.411 17.6147 285.265 16.825 285.265 15.997C285.265 15.1537 285.411 14.3563 285.702 13.605C285.993 12.8537 286.407 12.1867 286.944 11.604C287.496 11.0213 288.163 10.569 288.945 10.247C289.727 9.90967 290.609 9.741 291.59 9.741C292.571 9.741 293.445 9.90967 294.212 10.247C294.994 10.569 295.661 11.0213 296.213 11.604C296.765 12.1867 297.179 12.8537 297.455 13.605C297.746 14.3563 297.892 15.1537 297.892 15.997C297.892 16.825 297.746 17.6147 297.455 18.366C297.179 19.1173 296.765 19.7843 296.213 20.367C295.676 20.9497 295.017 21.4097 294.235 21.747C293.453 22.069 292.571 22.23 291.59 22.23ZM288.439 15.997C288.439 16.7023 288.577 17.331 288.853 17.883C289.129 18.4197 289.505 18.8413 289.98 19.148C290.455 19.4547 290.992 19.608 291.59 19.608C292.173 19.608 292.702 19.4547 293.177 19.148C293.652 18.826 294.028 18.3967 294.304 17.86C294.595 17.308 294.741 16.6793 294.741 15.974C294.741 15.284 294.595 14.663 294.304 14.111C294.028 13.559 293.652 13.1297 293.177 12.823C292.702 12.5163 292.173 12.363 291.59 12.363C290.992 12.363 290.455 12.524 289.98 12.846C289.505 13.1527 289.129 13.582 288.853 14.134C288.577 14.6707 288.439 15.2917 288.439 15.997ZM304.411 22.23C303.384 22.23 302.403 22.0613 301.467 21.724C300.532 21.3867 299.727 20.8883 299.052 20.229L300.156 18.228C300.877 18.8107 301.582 19.24 302.272 19.516C302.978 19.792 303.652 19.93 304.296 19.93C304.894 19.93 305.37 19.8227 305.722 19.608C306.09 19.3933 306.274 19.0713 306.274 18.642C306.274 18.3507 306.175 18.1283 305.975 17.975C305.776 17.8063 305.485 17.6607 305.101 17.538C304.733 17.4153 304.281 17.2773 303.744 17.124C302.855 16.8327 302.111 16.549 301.513 16.273C300.915 15.997 300.463 15.652 300.156 15.238C299.865 14.8087 299.719 14.2643 299.719 13.605C299.719 12.8077 299.919 12.1253 300.317 11.558C300.731 10.9753 301.299 10.523 302.019 10.201C302.755 9.879 303.614 9.718 304.595 9.718C305.454 9.718 306.267 9.856 307.033 10.132C307.8 10.3927 308.498 10.822 309.126 11.42L307.884 13.375C307.271 12.8997 306.688 12.5547 306.136 12.34C305.584 12.11 305.025 11.995 304.457 11.995C304.135 11.995 303.829 12.0333 303.537 12.11C303.261 12.1867 303.031 12.317 302.847 12.501C302.679 12.6697 302.594 12.915 302.594 13.237C302.594 13.5283 302.671 13.7583 302.824 13.927C302.993 14.0803 303.238 14.2183 303.56 14.341C303.898 14.4637 304.304 14.6017 304.779 14.755C305.745 15.031 306.558 15.3147 307.217 15.606C307.892 15.8973 308.398 16.2577 308.735 16.687C309.073 17.101 309.241 17.676 309.241 18.412C309.241 19.608 308.804 20.5433 307.93 21.218C307.056 21.8927 305.883 22.23 304.411 22.23Z" fill="#464646" fill-opacity="0.7"/>
<path d="M11.431 109.948C11.3237 109.841 11.1243 109.695 10.833 109.511C10.557 109.327 10.212 109.151 9.798 108.982C9.39933 108.813 8.96233 108.668 8.487 108.545C8.01167 108.407 7.52867 108.338 7.038 108.338C6.17933 108.338 5.52767 108.499 5.083 108.821C4.65367 109.143 4.439 109.595 4.439 110.178C4.439 110.623 4.577 110.975 4.853 111.236C5.129 111.497 5.543 111.719 6.095 111.903C6.647 112.087 7.337 112.286 8.165 112.501C9.23833 112.762 10.166 113.084 10.948 113.467C11.7453 113.835 12.351 114.326 12.765 114.939C13.1943 115.537 13.409 116.334 13.409 117.331C13.409 118.205 13.248 118.956 12.926 119.585C12.604 120.198 12.1593 120.697 11.592 121.08C11.0247 121.463 10.3807 121.747 9.66 121.931C8.93933 122.1 8.17267 122.184 7.36 122.184C6.54733 122.184 5.73467 122.1 4.922 121.931C4.10933 121.762 3.32733 121.525 2.576 121.218C1.82467 120.896 1.13467 120.513 0.506 120.068L1.909 117.331C2.047 117.469 2.29233 117.653 2.645 117.883C2.99767 118.098 3.427 118.32 3.933 118.55C4.439 118.765 4.991 118.949 5.589 119.102C6.187 119.255 6.79267 119.332 7.406 119.332C8.26467 119.332 8.91633 119.186 9.361 118.895C9.80567 118.604 10.028 118.19 10.028 117.653C10.028 117.162 9.85167 116.779 9.499 116.503C9.14633 116.227 8.65567 115.989 8.027 115.79C7.39833 115.575 6.65467 115.345 5.796 115.1C4.76867 114.809 3.91 114.487 3.22 114.134C2.53 113.766 2.01633 113.306 1.679 112.754C1.34167 112.202 1.173 111.512 1.173 110.684C1.173 109.565 1.43367 108.629 1.955 107.878C2.49167 107.111 3.21233 106.536 4.117 106.153C5.02167 105.754 6.026 105.555 7.13 105.555C7.89667 105.555 8.61733 105.639 9.292 105.808C9.982 105.977 10.626 106.199 11.224 106.475C11.822 106.751 12.3587 107.05 12.834 107.372L11.431 109.948ZM21.0975 122.23C20.1315 122.23 19.2575 122.069 18.4755 121.747C17.6935 121.41 17.0265 120.957 16.4745 120.39C15.9225 119.807 15.4931 119.148 15.1865 118.412C14.8951 117.661 14.7495 116.871 14.7495 116.043C14.7495 114.893 15.0025 113.843 15.5085 112.892C16.0298 111.941 16.7658 111.182 17.7165 110.615C18.6825 110.032 19.8171 109.741 21.1205 109.741C22.4391 109.741 23.5661 110.032 24.5015 110.615C25.4368 111.182 26.1498 111.941 26.6405 112.892C27.1465 113.827 27.3995 114.839 27.3995 115.928C27.3995 116.112 27.3918 116.304 27.3765 116.503C27.3611 116.687 27.3458 116.84 27.3305 116.963H18.0155C18.0768 117.576 18.2531 118.113 18.5445 118.573C18.8511 119.033 19.2345 119.386 19.6945 119.631C20.1698 119.861 20.6758 119.976 21.2125 119.976C21.8258 119.976 22.4008 119.83 22.9375 119.539C23.4895 119.232 23.8651 118.834 24.0645 118.343L26.7095 119.079C26.4181 119.692 25.9965 120.237 25.4445 120.712C24.9078 121.187 24.2715 121.563 23.5355 121.839C22.7995 122.1 21.9868 122.23 21.0975 122.23ZM17.9465 115.008H24.2485C24.1871 114.395 24.0108 113.866 23.7195 113.421C23.4435 112.961 23.0755 112.608 22.6155 112.363C22.1555 112.102 21.6418 111.972 21.0745 111.972C20.5225 111.972 20.0165 112.102 19.5565 112.363C19.1118 112.608 18.7438 112.961 18.4525 113.421C18.1765 113.866 18.0078 114.395 17.9465 115.008ZM22.0865 108.545L20.1085 107.947L21.3505 105.21H24.2255L22.0865 108.545ZM36.453 112.616C35.5177 112.616 34.682 112.8 33.946 113.168C33.21 113.521 32.681 114.034 32.359 114.709V122H29.277V109.948H32.106V112.524C32.5354 111.696 33.0797 111.044 33.739 110.569C34.3984 110.094 35.096 109.833 35.832 109.787C36.0007 109.787 36.131 109.787 36.223 109.787C36.315 109.787 36.3917 109.795 36.453 109.81V112.616ZM38.1716 122V109.948H41.2536V122H38.1716ZM38.1716 108.269V105.21H41.2536V108.269H38.1716ZM49.6229 122.23C48.6569 122.23 47.7829 122.069 47.0009 121.747C46.2189 121.41 45.5519 120.957 44.9999 120.39C44.4479 119.807 44.0185 119.148 43.7119 118.412C43.4205 117.661 43.2749 116.871 43.2749 116.043C43.2749 114.893 43.5279 113.843 44.0339 112.892C44.5552 111.941 45.2912 111.182 46.2419 110.615C47.2079 110.032 48.3425 109.741 49.6459 109.741C50.9645 109.741 52.0915 110.032 53.0269 110.615C53.9622 111.182 54.6752 111.941 55.1659 112.892C55.6719 113.827 55.9249 114.839 55.9249 115.928C55.9249 116.112 55.9172 116.304 55.9019 116.503C55.8865 116.687 55.8712 116.84 55.8559 116.963H46.5409C46.6022 117.576 46.7785 118.113 47.0699 118.573C47.3765 119.033 47.7599 119.386 48.2199 119.631C48.6952 119.861 49.2012 119.976 49.7379 119.976C50.3512 119.976 50.9262 119.83 51.4629 119.539C52.0149 119.232 52.3905 118.834 52.5899 118.343L55.2349 119.079C54.9435 119.692 54.5219 120.237 53.9699 120.712C53.4332 121.187 52.7969 121.563 52.0609 121.839C51.3249 122.1 50.5122 122.23 49.6229 122.23ZM46.4719 115.008H52.7739C52.7125 114.395 52.5362 113.866 52.2449 113.421C51.9689 112.961 51.6009 112.608 51.1409 112.363C50.6809 112.102 50.1672 111.972 49.5999 111.972C49.0479 111.972 48.5419 112.102 48.0819 112.363C47.6372 112.608 47.2692 112.961 46.9779 113.421C46.7019 113.866 46.5332 114.395 46.4719 115.008ZM62.2414 122.23C61.2141 122.23 60.2327 122.061 59.2974 121.724C58.3621 121.387 57.5571 120.888 56.8824 120.229L57.9864 118.228C58.7071 118.811 59.4124 119.24 60.1024 119.516C60.8077 119.792 61.4824 119.93 62.1264 119.93C62.7244 119.93 63.1997 119.823 63.5524 119.608C63.9204 119.393 64.1044 119.071 64.1044 118.642C64.1044 118.351 64.0047 118.128 63.8054 117.975C63.6061 117.806 63.3147 117.661 62.9314 117.538C62.5634 117.415 62.1111 117.277 61.5744 117.124C60.6851 116.833 59.9414 116.549 59.3434 116.273C58.7454 115.997 58.2931 115.652 57.9864 115.238C57.6951 114.809 57.5494 114.264 57.5494 113.605C57.5494 112.808 57.7487 112.125 58.1474 111.558C58.5614 110.975 59.1287 110.523 59.8494 110.201C60.5854 109.879 61.4441 109.718 62.4254 109.718C63.2841 109.718 64.0967 109.856 64.8634 110.132C65.6301 110.393 66.3277 110.822 66.9564 111.42L65.7144 113.375C65.1011 112.9 64.5184 112.555 63.9664 112.34C63.4144 112.11 62.8547 111.995 62.2874 111.995C61.9654 111.995 61.6587 112.033 61.3674 112.11C61.0914 112.187 60.8614 112.317 60.6774 112.501C60.5087 112.67 60.4244 112.915 60.4244 113.237C60.4244 113.528 60.5011 113.758 60.6544 113.927C60.8231 114.08 61.0684 114.218 61.3904 114.341C61.7277 114.464 62.1341 114.602 62.6094 114.755C63.5754 115.031 64.3881 115.315 65.0474 115.606C65.7221 115.897 66.2281 116.258 66.5654 116.687C66.9027 117.101 67.0714 117.676 67.0714 118.412C67.0714 119.608 66.6344 120.543 65.7604 121.218C64.8864 121.893 63.7134 122.23 62.2414 122.23Z" fill="#464646" fill-opacity="0.7"/>
<path d="M251.141 105.67H254.361L260.364 122H257.098L255.58 117.929H249.876L248.381 122H245.115L251.141 105.67ZM255.005 115.698L252.751 108.959L250.405 115.698H255.005ZM266.115 122.23C265.088 122.23 264.107 122.061 263.171 121.724C262.236 121.387 261.431 120.888 260.756 120.229L261.86 118.228C262.581 118.811 263.286 119.24 263.976 119.516C264.682 119.792 265.356 119.93 266 119.93C266.598 119.93 267.074 119.823 267.426 119.608C267.794 119.393 267.978 119.071 267.978 118.642C267.978 118.351 267.879 118.128 267.679 117.975C267.48 117.806 267.189 117.661 266.805 117.538C266.437 117.415 265.985 117.277 265.448 117.124C264.559 116.833 263.815 116.549 263.217 116.273C262.619 115.997 262.167 115.652 261.86 115.238C261.569 114.809 261.423 114.264 261.423 113.605C261.423 112.808 261.623 112.125 262.021 111.558C262.435 110.975 263.003 110.523 263.723 110.201C264.459 109.879 265.318 109.718 266.299 109.718C267.158 109.718 267.971 109.856 268.737 110.132C269.504 110.393 270.202 110.822 270.83 111.42L269.588 113.375C268.975 112.9 268.392 112.555 267.84 112.34C267.288 112.11 266.729 111.995 266.161 111.995C265.839 111.995 265.533 112.033 265.241 112.11C264.965 112.187 264.735 112.317 264.551 112.501C264.383 112.67 264.298 112.915 264.298 113.237C264.298 113.528 264.375 113.758 264.528 113.927C264.697 114.08 264.942 114.218 265.264 114.341C265.602 114.464 266.008 114.602 266.483 114.755C267.449 115.031 268.262 115.315 268.921 115.606C269.596 115.897 270.102 116.258 270.439 116.687C270.777 117.101 270.945 117.676 270.945 118.412C270.945 119.608 270.508 120.543 269.634 121.218C268.76 121.893 267.587 122.23 266.115 122.23ZM280.196 121.379C279.936 121.486 279.621 121.609 279.253 121.747C278.885 121.885 278.487 121.992 278.057 122.069C277.643 122.161 277.222 122.207 276.792 122.207C276.225 122.207 275.704 122.107 275.228 121.908C274.753 121.709 274.37 121.394 274.078 120.965C273.802 120.52 273.664 119.945 273.664 119.24V112.317H272.077V109.948H273.664V106.038H276.746V109.948H279.276V112.317H276.746V118.205C276.762 118.619 276.877 118.918 277.091 119.102C277.306 119.286 277.574 119.378 277.896 119.378C278.218 119.378 278.533 119.324 278.839 119.217C279.146 119.11 279.391 119.018 279.575 118.941L280.196 121.379ZM288.977 112.616C288.042 112.616 287.206 112.8 286.47 113.168C285.734 113.521 285.205 114.034 284.883 114.709V122H281.801V109.948H284.63V112.524C285.06 111.696 285.604 111.044 286.263 110.569C286.923 110.094 287.62 109.833 288.356 109.787C288.525 109.787 288.655 109.787 288.747 109.787C288.839 109.787 288.916 109.795 288.977 109.81V112.616ZM296.105 122.23C295.123 122.23 294.242 122.069 293.46 121.747C292.678 121.41 292.011 120.95 291.459 120.367C290.922 119.784 290.508 119.117 290.217 118.366C289.925 117.615 289.78 116.825 289.78 115.997C289.78 115.154 289.925 114.356 290.217 113.605C290.508 112.854 290.922 112.187 291.459 111.604C292.011 111.021 292.678 110.569 293.46 110.247C294.242 109.91 295.123 109.741 296.105 109.741C297.086 109.741 297.96 109.91 298.727 110.247C299.509 110.569 300.176 111.021 300.728 111.604C301.28 112.187 301.694 112.854 301.97 113.605C302.261 114.356 302.407 115.154 302.407 115.997C302.407 116.825 302.261 117.615 301.97 118.366C301.694 119.117 301.28 119.784 300.728 120.367C300.191 120.95 299.532 121.41 298.75 121.747C297.968 122.069 297.086 122.23 296.105 122.23ZM292.954 115.997C292.954 116.702 293.092 117.331 293.368 117.883C293.644 118.42 294.019 118.841 294.495 119.148C294.97 119.455 295.507 119.608 296.105 119.608C296.687 119.608 297.216 119.455 297.692 119.148C298.167 118.826 298.543 118.397 298.819 117.86C299.11 117.308 299.256 116.679 299.256 115.974C299.256 115.284 299.11 114.663 298.819 114.111C298.543 113.559 298.167 113.13 297.692 112.823C297.216 112.516 296.687 112.363 296.105 112.363C295.507 112.363 294.97 112.524 294.495 112.846C294.019 113.153 293.644 113.582 293.368 114.134C293.092 114.671 292.954 115.292 292.954 115.997ZM315.688 122H312.606V115.238C312.606 114.272 312.437 113.567 312.1 113.122C311.763 112.677 311.295 112.455 310.697 112.455C310.283 112.455 309.861 112.562 309.432 112.777C309.018 112.992 308.642 113.291 308.305 113.674C307.968 114.042 307.722 114.471 307.569 114.962V122H304.487V109.948H307.27V112.179C307.577 111.658 307.968 111.221 308.443 110.868C308.918 110.5 309.463 110.224 310.076 110.04C310.705 109.841 311.364 109.741 312.054 109.741C312.805 109.741 313.419 109.879 313.894 110.155C314.385 110.416 314.753 110.776 314.998 111.236C315.259 111.681 315.435 112.187 315.527 112.754C315.634 113.321 315.688 113.896 315.688 114.479V122ZM323.934 122.23C322.953 122.23 322.071 122.069 321.289 121.747C320.507 121.41 319.84 120.95 319.288 120.367C318.751 119.784 318.337 119.117 318.046 118.366C317.755 117.615 317.609 116.825 317.609 115.997C317.609 115.154 317.755 114.356 318.046 113.605C318.337 112.854 318.751 112.187 319.288 111.604C319.84 111.021 320.507 110.569 321.289 110.247C322.071 109.91 322.953 109.741 323.934 109.741C324.915 109.741 325.789 109.91 326.556 110.247C327.338 110.569 328.005 111.021 328.557 111.604C329.109 112.187 329.523 112.854 329.799 113.605C330.09 114.356 330.236 115.154 330.236 115.997C330.236 116.825 330.09 117.615 329.799 118.366C329.523 119.117 329.109 119.784 328.557 120.367C328.02 120.95 327.361 121.41 326.579 121.747C325.797 122.069 324.915 122.23 323.934 122.23ZM320.783 115.997C320.783 116.702 320.921 117.331 321.197 117.883C321.473 118.42 321.849 118.841 322.324 119.148C322.799 119.455 323.336 119.608 323.934 119.608C324.517 119.608 325.046 119.455 325.521 119.148C325.996 118.826 326.372 118.397 326.648 117.86C326.939 117.308 327.085 116.679 327.085 115.974C327.085 115.284 326.939 114.663 326.648 114.111C326.372 113.559 325.996 113.13 325.521 112.823C325.046 112.516 324.517 112.363 323.934 112.363C323.336 112.363 322.799 112.524 322.324 112.846C321.849 113.153 321.473 113.582 321.197 114.134C320.921 114.671 320.783 115.292 320.783 115.997ZM351.038 122H347.956V115.238C347.956 114.287 347.787 113.59 347.45 113.145C347.128 112.685 346.676 112.455 346.093 112.455C345.495 112.455 344.92 112.693 344.368 113.168C343.831 113.628 343.448 114.234 343.218 114.985V122H340.136V115.238C340.136 114.272 339.967 113.567 339.63 113.122C339.308 112.677 338.856 112.455 338.273 112.455C337.675 112.455 337.1 112.685 336.548 113.145C336.011 113.605 335.628 114.211 335.398 114.962V122H332.316V109.948H335.099V112.179C335.559 111.397 336.172 110.799 336.939 110.385C337.706 109.956 338.587 109.741 339.584 109.741C340.581 109.741 341.355 109.986 341.907 110.477C342.474 110.968 342.835 111.573 342.988 112.294C343.479 111.466 344.1 110.837 344.851 110.408C345.618 109.963 346.476 109.741 347.427 109.741C348.178 109.741 348.784 109.879 349.244 110.155C349.719 110.416 350.087 110.776 350.348 111.236C350.609 111.681 350.785 112.187 350.877 112.754C350.984 113.321 351.038 113.896 351.038 114.479V122ZM353.721 122V109.948H356.803V122H353.721ZM353.721 108.269V105.21H356.803V108.269H353.721ZM358.756 118.435C358.756 117.653 358.97 116.971 359.4 116.388C359.844 115.79 360.458 115.33 361.24 115.008C362.022 114.686 362.919 114.525 363.931 114.525C364.437 114.525 364.95 114.563 365.472 114.64C365.993 114.717 366.445 114.839 366.829 115.008V114.364C366.829 113.597 366.599 113.007 366.139 112.593C365.694 112.179 365.027 111.972 364.138 111.972C363.478 111.972 362.85 112.087 362.252 112.317C361.654 112.547 361.025 112.884 360.366 113.329L359.377 111.305C360.174 110.784 360.987 110.393 361.815 110.132C362.658 109.871 363.54 109.741 364.46 109.741C366.177 109.741 367.511 110.17 368.462 111.029C369.428 111.888 369.911 113.114 369.911 114.709V118.55C369.911 118.872 369.964 119.102 370.072 119.24C370.194 119.378 370.386 119.462 370.647 119.493V122C370.371 122.046 370.118 122.084 369.888 122.115C369.673 122.146 369.489 122.161 369.336 122.161C368.722 122.161 368.255 122.023 367.933 121.747C367.626 121.471 367.434 121.134 367.358 120.735L367.289 120.114C366.767 120.789 366.116 121.31 365.334 121.678C364.552 122.046 363.754 122.23 362.942 122.23C362.144 122.23 361.424 122.069 360.78 121.747C360.151 121.41 359.653 120.957 359.285 120.39C358.932 119.807 358.756 119.156 358.756 118.435ZM366.254 119.056C366.422 118.872 366.56 118.688 366.668 118.504C366.775 118.32 366.829 118.151 366.829 117.998V116.779C366.461 116.626 366.062 116.511 365.633 116.434C365.203 116.342 364.797 116.296 364.414 116.296C363.616 116.296 362.957 116.472 362.436 116.825C361.93 117.162 361.677 117.615 361.677 118.182C361.677 118.489 361.761 118.78 361.93 119.056C362.098 119.332 362.344 119.554 362.666 119.723C362.988 119.892 363.371 119.976 363.816 119.976C364.276 119.976 364.728 119.892 365.173 119.723C365.617 119.539 365.978 119.317 366.254 119.056Z" fill="#464646" fill-opacity="0.7"/>
<path d="M6.141 155.67H9.361L15.364 172H12.098L10.58 167.929H4.876L3.381 172H0.115L6.141 155.67ZM10.005 165.698L7.751 158.959L5.405 165.698H10.005ZM28.0571 172H24.9751V165.238C24.9751 164.272 24.8065 163.567 24.4691 163.122C24.1318 162.677 23.6641 162.455 23.0661 162.455C22.6521 162.455 22.2305 162.562 21.8011 162.777C21.3871 162.992 21.0115 163.291 20.6741 163.674C20.3368 164.042 20.0915 164.471 19.9381 164.962V172H16.8561V159.948H19.6391V162.179C19.9458 161.658 20.3368 161.221 20.8121 160.868C21.2875 160.5 21.8318 160.224 22.4451 160.04C23.0738 159.841 23.7331 159.741 24.4231 159.741C25.1745 159.741 25.7878 159.879 26.2631 160.155C26.7538 160.416 27.1218 160.776 27.3671 161.236C27.6278 161.681 27.8041 162.187 27.8961 162.754C28.0035 163.321 28.0571 163.896 28.0571 164.479V172ZM30.737 172V159.948H33.819V172H30.737ZM30.737 158.269V155.21H33.819V158.269H30.737ZM55.3213 172H52.2393V165.238C52.2393 164.287 52.0706 163.59 51.7333 163.145C51.4113 162.685 50.959 162.455 50.3763 162.455C49.7783 162.455 49.2033 162.693 48.6513 163.168C48.1146 163.628 47.7313 164.234 47.5013 164.985V172H44.4193V165.238C44.4193 164.272 44.2506 163.567 43.9133 163.122C43.5913 162.677 43.139 162.455 42.5563 162.455C41.9583 162.455 41.3833 162.685 40.8313 163.145C40.2946 163.605 39.9113 164.211 39.6813 164.962V172H36.5993V159.948H39.3823V162.179C39.8423 161.397 40.4556 160.799 41.2223 160.385C41.989 159.956 42.8706 159.741 43.8673 159.741C44.864 159.741 45.6383 159.986 46.1903 160.477C46.7576 160.968 47.118 161.573 47.2713 162.294C47.762 161.466 48.383 160.837 49.1343 160.408C49.901 159.963 50.7596 159.741 51.7103 159.741C52.4616 159.741 53.0673 159.879 53.5273 160.155C54.0026 160.416 54.3706 160.776 54.6313 161.236C54.892 161.681 55.0683 162.187 55.1603 162.754C55.2676 163.321 55.3213 163.896 55.3213 164.479V172ZM57.1766 168.435C57.1766 167.653 57.3912 166.971 57.8206 166.388C58.2652 165.79 58.8786 165.33 59.6606 165.008C60.4426 164.686 61.3396 164.525 62.3516 164.525C62.8576 164.525 63.3712 164.563 63.8926 164.64C64.4139 164.717 64.8662 164.839 65.2496 165.008V164.364C65.2496 163.597 65.0196 163.007 64.5596 162.593C64.1149 162.179 63.4479 161.972 62.5586 161.972C61.8992 161.972 61.2706 162.087 60.6726 162.317C60.0746 162.547 59.4459 162.884 58.7866 163.329L57.7976 161.305C58.5949 160.784 59.4076 160.393 60.2356 160.132C61.0789 159.871 61.9606 159.741 62.8806 159.741C64.5979 159.741 65.9319 160.17 66.8826 161.029C67.8486 161.888 68.3316 163.114 68.3316 164.709V168.55C68.3316 168.872 68.3852 169.102 68.4926 169.24C68.6152 169.378 68.8069 169.462 69.0676 169.493V172C68.7916 172.046 68.5386 172.084 68.3086 172.115C68.0939 172.146 67.9099 172.161 67.7566 172.161C67.1432 172.161 66.6756 172.023 66.3536 171.747C66.0469 171.471 65.8552 171.134 65.7786 170.735L65.7096 170.114C65.1882 170.789 64.5366 171.31 63.7546 171.678C62.9726 172.046 62.1752 172.23 61.3626 172.23C60.5652 172.23 59.8446 172.069 59.2006 171.747C58.5719 171.41 58.0736 170.957 57.7056 170.39C57.3529 169.807 57.1766 169.156 57.1766 168.435ZM64.6746 169.056C64.8432 168.872 64.9812 168.688 65.0886 168.504C65.1959 168.32 65.2496 168.151 65.2496 167.998V166.779C64.8816 166.626 64.4829 166.511 64.0536 166.434C63.6242 166.342 63.2179 166.296 62.8346 166.296C62.0372 166.296 61.3779 166.472 60.8566 166.825C60.3506 167.162 60.0976 167.615 60.0976 168.182C60.0976 168.489 60.1819 168.78 60.3506 169.056C60.5192 169.332 60.7646 169.554 61.0866 169.723C61.4086 169.892 61.7919 169.976 62.2366 169.976C62.6966 169.976 63.1489 169.892 63.5936 169.723C64.0382 169.539 64.3986 169.317 64.6746 169.056ZM71.2116 172V159.948H74.2936V172H71.2116ZM71.2116 158.269V155.21H74.2936V158.269H71.2116ZM81.5129 172.23C80.4856 172.23 79.5042 172.061 78.5689 171.724C77.6336 171.387 76.8286 170.888 76.1539 170.229L77.2579 168.228C77.9786 168.811 78.6839 169.24 79.3739 169.516C80.0792 169.792 80.7539 169.93 81.3979 169.93C81.9959 169.93 82.4712 169.823 82.8239 169.608C83.1919 169.393 83.3759 169.071 83.3759 168.642C83.3759 168.351 83.2762 168.128 83.0769 167.975C82.8776 167.806 82.5862 167.661 82.2029 167.538C81.8349 167.415 81.3826 167.277 80.8459 167.124C79.9566 166.833 79.2129 166.549 78.6149 166.273C78.0169 165.997 77.5646 165.652 77.2579 165.238C76.9666 164.809 76.8209 164.264 76.8209 163.605C76.8209 162.808 77.0202 162.125 77.4189 161.558C77.8329 160.975 78.4002 160.523 79.1209 160.201C79.8569 159.879 80.7156 159.718 81.6969 159.718C82.5556 159.718 83.3682 159.856 84.1349 160.132C84.9016 160.393 85.5992 160.822 86.2279 161.42L84.9859 163.375C84.3726 162.9 83.7899 162.555 83.2379 162.34C82.6859 162.11 82.1262 161.995 81.5589 161.995C81.2369 161.995 80.9302 162.033 80.6389 162.11C80.3629 162.187 80.1329 162.317 79.9489 162.501C79.7802 162.67 79.6959 162.915 79.6959 163.237C79.6959 163.528 79.7726 163.758 79.9259 163.927C80.0946 164.08 80.3399 164.218 80.6619 164.341C80.9992 164.464 81.4056 164.602 81.8809 164.755C82.8469 165.031 83.6596 165.315 84.3189 165.606C84.9936 165.897 85.4996 166.258 85.8369 166.687C86.1742 167.101 86.3429 167.676 86.3429 168.412C86.3429 169.608 85.9059 170.543 85.0319 171.218C84.1579 171.893 82.9849 172.23 81.5129 172.23Z" fill="#464646" fill-opacity="0.7"/>
<path d="M245.713 163.72C245.713 162.723 245.889 161.75 246.242 160.799C246.61 159.833 247.139 158.959 247.829 158.177C248.519 157.38 249.362 156.751 250.359 156.291C251.356 155.816 252.49 155.578 253.763 155.578C255.266 155.578 256.561 155.908 257.65 156.567C258.754 157.226 259.574 158.085 260.111 159.143L257.673 160.822C257.397 160.209 257.037 159.726 256.592 159.373C256.147 159.005 255.672 158.752 255.166 158.614C254.66 158.461 254.162 158.384 253.671 158.384C252.874 158.384 252.176 158.545 251.578 158.867C250.995 159.189 250.505 159.611 250.106 160.132C249.707 160.653 249.408 161.236 249.209 161.88C249.025 162.524 248.933 163.168 248.933 163.812C248.933 164.533 249.048 165.23 249.278 165.905C249.508 166.564 249.83 167.155 250.244 167.676C250.673 168.182 251.179 168.588 251.762 168.895C252.36 169.186 253.012 169.332 253.717 169.332C254.223 169.332 254.737 169.248 255.258 169.079C255.779 168.91 256.262 168.642 256.707 168.274C257.152 167.906 257.497 167.431 257.742 166.848L260.341 168.343C260.019 169.156 259.49 169.846 258.754 170.413C258.033 170.98 257.221 171.41 256.316 171.701C255.411 171.992 254.514 172.138 253.625 172.138C252.46 172.138 251.394 171.9 250.428 171.425C249.462 170.934 248.626 170.29 247.921 169.493C247.231 168.68 246.687 167.776 246.288 166.779C245.905 165.767 245.713 164.747 245.713 163.72ZM267.692 172.23C266.71 172.23 265.829 172.069 265.047 171.747C264.265 171.41 263.598 170.95 263.046 170.367C262.509 169.784 262.095 169.117 261.804 168.366C261.512 167.615 261.367 166.825 261.367 165.997C261.367 165.154 261.512 164.356 261.804 163.605C262.095 162.854 262.509 162.187 263.046 161.604C263.598 161.021 264.265 160.569 265.047 160.247C265.829 159.91 266.71 159.741 267.692 159.741C268.673 159.741 269.547 159.91 270.314 160.247C271.096 160.569 271.763 161.021 272.315 161.604C272.867 162.187 273.281 162.854 273.557 163.605C273.848 164.356 273.994 165.154 273.994 165.997C273.994 166.825 273.848 167.615 273.557 168.366C273.281 169.117 272.867 169.784 272.315 170.367C271.778 170.95 271.119 171.41 270.337 171.747C269.555 172.069 268.673 172.23 267.692 172.23ZM264.541 165.997C264.541 166.702 264.679 167.331 264.955 167.883C265.231 168.42 265.606 168.841 266.082 169.148C266.557 169.455 267.094 169.608 267.692 169.608C268.274 169.608 268.803 169.455 269.279 169.148C269.754 168.826 270.13 168.397 270.406 167.86C270.697 167.308 270.843 166.679 270.843 165.974C270.843 165.284 270.697 164.663 270.406 164.111C270.13 163.559 269.754 163.13 269.279 162.823C268.803 162.516 268.274 162.363 267.692 162.363C267.094 162.363 266.557 162.524 266.082 162.846C265.606 163.153 265.231 163.582 264.955 164.134C264.679 164.671 264.541 165.292 264.541 165.997ZM280.513 172.23C279.486 172.23 278.504 172.061 277.569 171.724C276.634 171.387 275.829 170.888 275.154 170.229L276.258 168.228C276.979 168.811 277.684 169.24 278.374 169.516C279.079 169.792 279.754 169.93 280.398 169.93C280.996 169.93 281.471 169.823 281.824 169.608C282.192 169.393 282.376 169.071 282.376 168.642C282.376 168.351 282.276 168.128 282.077 167.975C281.878 167.806 281.586 167.661 281.203 167.538C280.835 167.415 280.383 167.277 279.846 167.124C278.957 166.833 278.213 166.549 277.615 166.273C277.017 165.997 276.565 165.652 276.258 165.238C275.967 164.809 275.821 164.264 275.821 163.605C275.821 162.808 276.02 162.125 276.419 161.558C276.833 160.975 277.4 160.523 278.121 160.201C278.857 159.879 279.716 159.718 280.697 159.718C281.556 159.718 282.368 159.856 283.135 160.132C283.902 160.393 284.599 160.822 285.228 161.42L283.986 163.375C283.373 162.9 282.79 162.555 282.238 162.34C281.686 162.11 281.126 161.995 280.559 161.995C280.237 161.995 279.93 162.033 279.639 162.11C279.363 162.187 279.133 162.317 278.949 162.501C278.78 162.67 278.696 162.915 278.696 163.237C278.696 163.528 278.773 163.758 278.926 163.927C279.095 164.08 279.34 164.218 279.662 164.341C279.999 164.464 280.406 164.602 280.881 164.755C281.847 165.031 282.66 165.315 283.319 165.606C283.994 165.897 284.5 166.258 284.837 166.687C285.174 167.101 285.343 167.676 285.343 168.412C285.343 169.608 284.906 170.543 284.032 171.218C283.158 171.893 281.985 172.23 280.513 172.23ZM306.161 172H303.079V165.238C303.079 164.287 302.91 163.59 302.573 163.145C302.251 162.685 301.799 162.455 301.216 162.455C300.618 162.455 300.043 162.693 299.491 163.168C298.954 163.628 298.571 164.234 298.341 164.985V172H295.259V165.238C295.259 164.272 295.09 163.567 294.753 163.122C294.431 162.677 293.979 162.455 293.396 162.455C292.798 162.455 292.223 162.685 291.671 163.145C291.134 163.605 290.751 164.211 290.521 164.962V172H287.439V159.948H290.222V162.179C290.682 161.397 291.295 160.799 292.062 160.385C292.829 159.956 293.71 159.741 294.707 159.741C295.704 159.741 296.478 159.986 297.03 160.477C297.597 160.968 297.958 161.573 298.111 162.294C298.602 161.466 299.223 160.837 299.974 160.408C300.741 159.963 301.599 159.741 302.55 159.741C303.301 159.741 303.907 159.879 304.367 160.155C304.842 160.416 305.21 160.776 305.471 161.236C305.732 161.681 305.908 162.187 306 162.754C306.107 163.321 306.161 163.896 306.161 164.479V172ZM314.41 172.23C313.429 172.23 312.547 172.069 311.765 171.747C310.983 171.41 310.316 170.95 309.764 170.367C309.228 169.784 308.814 169.117 308.522 168.366C308.231 167.615 308.085 166.825 308.085 165.997C308.085 165.154 308.231 164.356 308.522 163.605C308.814 162.854 309.228 162.187 309.764 161.604C310.316 161.021 310.983 160.569 311.765 160.247C312.547 159.91 313.429 159.741 314.41 159.741C315.392 159.741 316.266 159.91 317.032 160.247C317.814 160.569 318.481 161.021 319.033 161.604C319.585 162.187 319.999 162.854 320.275 163.605C320.567 164.356 320.712 165.154 320.712 165.997C320.712 166.825 320.567 167.615 320.275 168.366C319.999 169.117 319.585 169.784 319.033 170.367C318.497 170.95 317.837 171.41 317.055 171.747C316.273 172.069 315.392 172.23 314.41 172.23ZM311.259 165.997C311.259 166.702 311.397 167.331 311.673 167.883C311.949 168.42 312.325 168.841 312.8 169.148C313.276 169.455 313.812 169.608 314.41 169.608C314.993 169.608 315.522 169.455 315.997 169.148C316.473 168.826 316.848 168.397 317.124 167.86C317.416 167.308 317.561 166.679 317.561 165.974C317.561 165.284 317.416 164.663 317.124 164.111C316.848 163.559 316.473 163.13 315.997 162.823C315.522 162.516 314.993 162.363 314.41 162.363C313.812 162.363 313.276 162.524 312.8 162.846C312.325 163.153 311.949 163.582 311.673 164.134C311.397 164.671 311.259 165.292 311.259 165.997ZM322.77 155.21H325.852V168.136C325.852 168.688 325.944 169.064 326.128 169.263C326.312 169.447 326.565 169.539 326.887 169.539C327.132 169.539 327.385 169.508 327.646 169.447C327.906 169.386 328.136 169.309 328.336 169.217L328.75 171.563C328.336 171.762 327.853 171.916 327.301 172.023C326.749 172.13 326.25 172.184 325.806 172.184C324.84 172.184 324.088 171.931 323.552 171.425C323.03 170.904 322.77 170.168 322.77 169.217V155.21ZM335.658 172.23C334.677 172.23 333.795 172.069 333.013 171.747C332.231 171.41 331.564 170.95 331.012 170.367C330.476 169.784 330.062 169.117 329.77 168.366C329.479 167.615 329.333 166.825 329.333 165.997C329.333 165.154 329.479 164.356 329.77 163.605C330.062 162.854 330.476 162.187 331.012 161.604C331.564 161.021 332.231 160.569 333.013 160.247C333.795 159.91 334.677 159.741 335.658 159.741C336.64 159.741 337.514 159.91 338.28 160.247C339.062 160.569 339.729 161.021 340.281 161.604C340.833 162.187 341.247 162.854 341.523 163.605C341.815 164.356 341.96 165.154 341.96 165.997C341.96 166.825 341.815 167.615 341.523 168.366C341.247 169.117 340.833 169.784 340.281 170.367C339.745 170.95 339.085 171.41 338.303 171.747C337.521 172.069 336.64 172.23 335.658 172.23ZM332.507 165.997C332.507 166.702 332.645 167.331 332.921 167.883C333.197 168.42 333.573 168.841 334.048 169.148C334.524 169.455 335.06 169.608 335.658 169.608C336.241 169.608 336.77 169.455 337.245 169.148C337.721 168.826 338.096 168.397 338.372 167.86C338.664 167.308 338.809 166.679 338.809 165.974C338.809 165.284 338.664 164.663 338.372 164.111C338.096 163.559 337.721 163.13 337.245 162.823C336.77 162.516 336.241 162.363 335.658 162.363C335.06 162.363 334.524 162.524 334.048 162.846C333.573 163.153 333.197 163.582 332.921 164.134C332.645 164.671 332.507 165.292 332.507 165.997ZM348.756 172.069C347.958 172.069 347.222 171.916 346.548 171.609C345.888 171.287 345.313 170.842 344.823 170.275C344.347 169.708 343.979 169.056 343.719 168.32C343.458 167.584 343.328 166.802 343.328 165.974C343.328 165.1 343.466 164.287 343.742 163.536C344.018 162.785 344.401 162.125 344.892 161.558C345.398 160.975 345.988 160.531 346.663 160.224C347.353 159.902 348.112 159.741 348.94 159.741C349.875 159.741 350.695 159.956 351.401 160.385C352.106 160.799 352.689 161.359 353.149 162.064V159.948H355.84V171.425C355.84 172.621 355.548 173.641 354.966 174.484C354.398 175.343 353.609 175.994 352.597 176.439C351.585 176.899 350.435 177.129 349.147 177.129C347.843 177.129 346.739 176.907 345.835 176.462C344.93 176.033 344.156 175.419 343.512 174.622L345.191 172.989C345.651 173.556 346.226 174.001 346.916 174.323C347.621 174.645 348.365 174.806 349.147 174.806C349.806 174.806 350.404 174.683 350.941 174.438C351.493 174.208 351.93 173.84 352.252 173.334C352.589 172.843 352.758 172.207 352.758 171.425V169.907C352.359 170.597 351.792 171.134 351.056 171.517C350.335 171.885 349.568 172.069 348.756 172.069ZM349.791 169.608C350.128 169.608 350.45 169.554 350.757 169.447C351.063 169.34 351.347 169.194 351.608 169.01C351.868 168.826 352.098 168.611 352.298 168.366C352.497 168.105 352.65 167.845 352.758 167.584V164.709C352.574 164.234 352.313 163.82 351.976 163.467C351.654 163.114 351.286 162.846 350.872 162.662C350.473 162.463 350.051 162.363 349.607 162.363C349.131 162.363 348.702 162.463 348.319 162.662C347.935 162.861 347.606 163.145 347.33 163.513C347.054 163.866 346.839 164.264 346.686 164.709C346.548 165.138 346.479 165.591 346.479 166.066C346.479 166.557 346.563 167.017 346.732 167.446C346.9 167.875 347.13 168.251 347.422 168.573C347.728 168.895 348.081 169.148 348.48 169.332C348.894 169.516 349.331 169.608 349.791 169.608ZM358.618 172V159.948H361.7V172H358.618ZM358.618 158.269V155.21H361.7V158.269H358.618ZM363.652 168.435C363.652 167.653 363.867 166.971 364.296 166.388C364.741 165.79 365.354 165.33 366.136 165.008C366.918 164.686 367.815 164.525 368.827 164.525C369.333 164.525 369.847 164.563 370.368 164.64C370.889 164.717 371.342 164.839 371.725 165.008V164.364C371.725 163.597 371.495 163.007 371.035 162.593C370.59 162.179 369.923 161.972 369.034 161.972C368.375 161.972 367.746 162.087 367.148 162.317C366.55 162.547 365.921 162.884 365.262 163.329L364.273 161.305C365.07 160.784 365.883 160.393 366.711 160.132C367.554 159.871 368.436 159.741 369.356 159.741C371.073 159.741 372.407 160.17 373.358 161.029C374.324 161.888 374.807 163.114 374.807 164.709V168.55C374.807 168.872 374.861 169.102 374.968 169.24C375.091 169.378 375.282 169.462 375.543 169.493V172C375.267 172.046 375.014 172.084 374.784 172.115C374.569 172.146 374.385 172.161 374.232 172.161C373.619 172.161 373.151 172.023 372.829 171.747C372.522 171.471 372.331 171.134 372.254 170.735L372.185 170.114C371.664 170.789 371.012 171.31 370.23 171.678C369.448 172.046 368.651 172.23 367.838 172.23C367.041 172.23 366.32 172.069 365.676 171.747C365.047 171.41 364.549 170.957 364.181 170.39C363.828 169.807 363.652 169.156 363.652 168.435ZM371.15 169.056C371.319 168.872 371.457 168.688 371.564 168.504C371.671 168.32 371.725 168.151 371.725 167.998V166.779C371.357 166.626 370.958 166.511 370.529 166.434C370.1 166.342 369.693 166.296 369.31 166.296C368.513 166.296 367.853 166.472 367.332 166.825C366.826 167.162 366.573 167.615 366.573 168.182C366.573 168.489 366.657 168.78 366.826 169.056C366.995 169.332 367.24 169.554 367.562 169.723C367.884 169.892 368.267 169.976 368.712 169.976C369.172 169.976 369.624 169.892 370.069 169.723C370.514 169.539 370.874 169.317 371.15 169.056Z" fill="#464646" fill-opacity="0.7"/>
</svg>
