<svg width="375" height="277" viewBox="0 0 375 277" fill="none" xmlns="http://www.w3.org/2000/svg">
<path d="M15.433 5.67V22H12.282V15.031H4.876V22H1.702V5.67H4.876V12.271H12.282V5.67H15.433ZM31.0527 8.453H25.8317V22H22.6807V8.453H17.4597V5.67H31.0527V8.453ZM46.3969 22V11.282L42.2109 19.263H40.4399L36.2539 11.282V22H33.0799V5.67H36.4839L41.3139 14.962L46.1899 5.67H49.5709V22H46.3969ZM52.9803 22V5.67H56.1543V19.217H64.4803V22H52.9803Z" fill="#464646" fill-opacity="0.7"/>
<path d="M231.431 59.948C231.324 59.8407 231.124 59.695 230.833 59.511C230.557 59.327 230.212 59.1507 229.798 58.982C229.399 58.8133 228.962 58.6677 228.487 58.545C228.012 58.407 227.529 58.338 227.038 58.338C226.179 58.338 225.528 58.499 225.083 58.821C224.654 59.143 224.439 59.5953 224.439 60.178C224.439 60.6227 224.577 60.9753 224.853 61.236C225.129 61.4967 225.543 61.719 226.095 61.903C226.647 62.087 227.337 62.2863 228.165 62.501C229.238 62.7617 230.166 63.0837 230.948 63.467C231.745 63.835 232.351 64.3257 232.765 64.939C233.194 65.537 233.409 66.3343 233.409 67.331C233.409 68.205 233.248 68.9563 232.926 69.585C232.604 70.1983 232.159 70.6967 231.592 71.08C231.025 71.4633 230.381 71.747 229.66 71.931C228.939 72.0997 228.173 72.184 227.36 72.184C226.547 72.184 225.735 72.0997 224.922 71.931C224.109 71.7623 223.327 71.5247 222.576 71.218C221.825 70.896 221.135 70.5127 220.506 70.068L221.909 67.331C222.047 67.469 222.292 67.653 222.645 67.883C222.998 68.0977 223.427 68.32 223.933 68.55C224.439 68.7647 224.991 68.9487 225.589 69.102C226.187 69.2553 226.793 69.332 227.406 69.332C228.265 69.332 228.916 69.1863 229.361 68.895C229.806 68.6037 230.028 68.1897 230.028 67.653C230.028 67.1623 229.852 66.779 229.499 66.503C229.146 66.227 228.656 65.9893 228.027 65.79C227.398 65.5753 226.655 65.3453 225.796 65.1C224.769 64.8087 223.91 64.4867 223.22 64.134C222.53 63.766 222.016 63.306 221.679 62.754C221.342 62.202 221.173 61.512 221.173 60.684C221.173 59.5647 221.434 58.6293 221.955 57.878C222.492 57.1113 223.212 56.5363 224.117 56.153C225.022 55.7543 226.026 55.555 227.13 55.555C227.897 55.555 228.617 55.6393 229.292 55.808C229.982 55.9767 230.626 56.199 231.224 56.475C231.822 56.751 232.359 57.05 232.834 57.372L231.431 59.948ZM241.12 72.23C240.139 72.23 239.257 72.069 238.475 71.747C237.693 71.4097 237.026 70.9497 236.474 70.367C235.922 69.769 235.493 69.0943 235.186 68.343C234.895 67.5917 234.749 66.802 234.749 65.974C234.749 64.8393 235.002 63.8043 235.508 62.869C236.03 61.9183 236.766 61.1593 237.716 60.592C238.667 60.0247 239.794 59.741 241.097 59.741C242.401 59.741 243.52 60.0247 244.455 60.592C245.391 61.1593 246.088 61.903 246.548 62.823L243.535 63.743C243.275 63.2983 242.93 62.961 242.5 62.731C242.071 62.4857 241.596 62.363 241.074 62.363C240.492 62.363 239.955 62.5163 239.464 62.823C238.989 63.1143 238.613 63.536 238.337 64.088C238.061 64.6247 237.923 65.2533 237.923 65.974C237.923 66.6793 238.061 67.308 238.337 67.86C238.629 68.3967 239.012 68.826 239.487 69.148C239.963 69.4547 240.492 69.608 241.074 69.608C241.442 69.608 241.787 69.5467 242.109 69.424C242.447 69.3013 242.746 69.1327 243.006 68.918C243.267 68.7033 243.459 68.458 243.581 68.182L246.594 69.102C246.318 69.7 245.912 70.2367 245.375 70.712C244.854 71.1873 244.233 71.563 243.512 71.839C242.807 72.0997 242.01 72.23 241.12 72.23ZM255.667 62.616C254.732 62.616 253.896 62.8 253.16 63.168C252.424 63.5207 251.895 64.0343 251.573 64.709V72H248.491V59.948H251.32V62.524C251.749 61.696 252.294 61.0443 252.953 60.569C253.612 60.0937 254.31 59.833 255.046 59.787C255.215 59.787 255.345 59.787 255.437 59.787C255.529 59.787 255.606 59.7947 255.667 59.81V62.616ZM257.27 67.492V59.948H260.352V66.825C260.352 67.745 260.521 68.4427 260.858 68.918C261.196 69.378 261.694 69.608 262.353 69.608C262.752 69.608 263.143 69.5313 263.526 69.378C263.925 69.2093 264.285 68.964 264.607 68.642C264.945 68.32 265.228 67.9137 265.458 67.423V59.948H268.54V68.55C268.54 68.872 268.594 69.102 268.701 69.24C268.824 69.378 269.016 69.4623 269.276 69.493V72C268.97 72.046 268.709 72.0767 268.494 72.092C268.295 72.1227 268.111 72.138 267.942 72.138C267.39 72.138 266.938 72.0153 266.585 71.77C266.248 71.5093 266.049 71.1567 265.987 70.712L265.918 69.746C265.382 70.5587 264.692 71.1797 263.848 71.609C263.005 72.023 262.077 72.23 261.065 72.23C259.823 72.23 258.88 71.8313 258.236 71.034C257.592 70.2213 257.27 69.0407 257.27 67.492ZM290.325 72H287.243V65.238C287.243 64.2873 287.075 63.5897 286.737 63.145C286.415 62.685 285.963 62.455 285.38 62.455C284.782 62.455 284.207 62.6927 283.655 63.168C283.119 63.628 282.735 64.2337 282.505 64.985V72H279.423V65.238C279.423 64.272 279.255 63.5667 278.917 63.122C278.595 62.6773 278.143 62.455 277.56 62.455C276.962 62.455 276.387 62.685 275.835 63.145C275.299 63.605 274.915 64.2107 274.685 64.962V72H271.603V59.948H274.386V62.179C274.846 61.397 275.46 60.799 276.226 60.385C276.993 59.9557 277.875 59.741 278.871 59.741C279.868 59.741 280.642 59.9863 281.194 60.477C281.762 60.9677 282.122 61.5733 282.275 62.294C282.766 61.466 283.387 60.8373 284.138 60.408C284.905 59.9633 285.764 59.741 286.714 59.741C287.466 59.741 288.071 59.879 288.531 60.155C289.007 60.4157 289.375 60.776 289.635 61.236C289.896 61.6807 290.072 62.1867 290.164 62.754C290.272 63.3213 290.325 63.8963 290.325 64.479V72Z" fill="#464646" fill-opacity="0.7"/>
<path d="M220.702 222V205.67H227.625C228.376 205.67 229.066 205.823 229.695 206.13C230.324 206.437 230.868 206.851 231.328 207.372C231.803 207.893 232.171 208.476 232.432 209.12C232.693 209.764 232.823 210.423 232.823 211.098C232.823 212.018 232.608 212.892 232.179 213.72C231.75 214.548 231.159 215.223 230.408 215.744C229.657 216.265 228.767 216.526 227.74 216.526H223.876V222H220.702ZM223.876 213.743H227.556C227.939 213.743 228.284 213.636 228.591 213.421C228.898 213.206 229.143 212.9 229.327 212.501C229.511 212.087 229.603 211.619 229.603 211.098C229.603 210.531 229.496 210.048 229.281 209.649C229.082 209.25 228.813 208.951 228.476 208.752C228.154 208.553 227.801 208.453 227.418 208.453H223.876V213.743ZM245.934 222H242.852V215.238C242.852 214.303 242.668 213.605 242.3 213.145C241.947 212.685 241.457 212.455 240.828 212.455C240.46 212.455 240.069 212.562 239.655 212.777C239.241 212.992 238.865 213.291 238.528 213.674C238.206 214.042 237.968 214.471 237.815 214.962V222H234.733V205.21H237.815V212.179C238.26 211.412 238.865 210.814 239.632 210.385C240.399 209.956 241.234 209.741 242.139 209.741C242.921 209.741 243.557 209.879 244.048 210.155C244.539 210.416 244.922 210.776 245.198 211.236C245.474 211.681 245.666 212.187 245.773 212.754C245.88 213.306 245.934 213.881 245.934 214.479V222ZM254.18 222.23C253.199 222.23 252.317 222.069 251.535 221.747C250.753 221.41 250.086 220.95 249.534 220.367C248.997 219.784 248.583 219.117 248.292 218.366C248.001 217.615 247.855 216.825 247.855 215.997C247.855 215.154 248.001 214.356 248.292 213.605C248.583 212.854 248.997 212.187 249.534 211.604C250.086 211.021 250.753 210.569 251.535 210.247C252.317 209.91 253.199 209.741 254.18 209.741C255.161 209.741 256.035 209.91 256.802 210.247C257.584 210.569 258.251 211.021 258.803 211.604C259.355 212.187 259.769 212.854 260.045 213.605C260.336 214.356 260.482 215.154 260.482 215.997C260.482 216.825 260.336 217.615 260.045 218.366C259.769 219.117 259.355 219.784 258.803 220.367C258.266 220.95 257.607 221.41 256.825 221.747C256.043 222.069 255.161 222.23 254.18 222.23ZM251.029 215.997C251.029 216.702 251.167 217.331 251.443 217.883C251.719 218.42 252.095 218.841 252.57 219.148C253.045 219.455 253.582 219.608 254.18 219.608C254.763 219.608 255.292 219.455 255.767 219.148C256.242 218.826 256.618 218.397 256.894 217.86C257.185 217.308 257.331 216.679 257.331 215.974C257.331 215.284 257.185 214.663 256.894 214.111C256.618 213.559 256.242 213.13 255.767 212.823C255.292 212.516 254.763 212.363 254.18 212.363C253.582 212.363 253.045 212.524 252.57 212.846C252.095 213.153 251.719 213.582 251.443 214.134C251.167 214.671 251.029 215.292 251.029 215.997ZM269.604 221.379C269.344 221.486 269.029 221.609 268.661 221.747C268.293 221.885 267.895 221.992 267.465 222.069C267.051 222.161 266.63 222.207 266.2 222.207C265.633 222.207 265.112 222.107 264.636 221.908C264.161 221.709 263.778 221.394 263.486 220.965C263.21 220.52 263.072 219.945 263.072 219.24V212.317H261.485V209.948H263.072V206.038H266.154V209.948H268.684V212.317H266.154V218.205C266.17 218.619 266.285 218.918 266.499 219.102C266.714 219.286 266.982 219.378 267.304 219.378C267.626 219.378 267.941 219.324 268.247 219.217C268.554 219.11 268.799 219.018 268.983 218.941L269.604 221.379ZM276.641 222.23C275.66 222.23 274.778 222.069 273.996 221.747C273.214 221.41 272.547 220.95 271.995 220.367C271.458 219.784 271.044 219.117 270.753 218.366C270.462 217.615 270.316 216.825 270.316 215.997C270.316 215.154 270.462 214.356 270.753 213.605C271.044 212.854 271.458 212.187 271.995 211.604C272.547 211.021 273.214 210.569 273.996 210.247C274.778 209.91 275.66 209.741 276.641 209.741C277.622 209.741 278.496 209.91 279.263 210.247C280.045 210.569 280.712 211.021 281.264 211.604C281.816 212.187 282.23 212.854 282.506 213.605C282.797 214.356 282.943 215.154 282.943 215.997C282.943 216.825 282.797 217.615 282.506 218.366C282.23 219.117 281.816 219.784 281.264 220.367C280.727 220.95 280.068 221.41 279.286 221.747C278.504 222.069 277.622 222.23 276.641 222.23ZM273.49 215.997C273.49 216.702 273.628 217.331 273.904 217.883C274.18 218.42 274.556 218.841 275.031 219.148C275.506 219.455 276.043 219.608 276.641 219.608C277.224 219.608 277.753 219.455 278.228 219.148C278.703 218.826 279.079 218.397 279.355 217.86C279.646 217.308 279.792 216.679 279.792 215.974C279.792 215.284 279.646 214.663 279.355 214.111C279.079 213.559 278.703 213.13 278.228 212.823C277.753 212.516 277.224 212.363 276.641 212.363C276.043 212.363 275.506 212.524 275.031 212.846C274.556 213.153 274.18 213.582 273.904 214.134C273.628 214.671 273.49 215.292 273.49 215.997ZM289.462 222.23C288.435 222.23 287.453 222.061 286.518 221.724C285.583 221.387 284.778 220.888 284.103 220.229L285.207 218.228C285.928 218.811 286.633 219.24 287.323 219.516C288.028 219.792 288.703 219.93 289.347 219.93C289.945 219.93 290.42 219.823 290.773 219.608C291.141 219.393 291.325 219.071 291.325 218.642C291.325 218.351 291.225 218.128 291.026 217.975C290.827 217.806 290.535 217.661 290.152 217.538C289.784 217.415 289.332 217.277 288.795 217.124C287.906 216.833 287.162 216.549 286.564 216.273C285.966 215.997 285.514 215.652 285.207 215.238C284.916 214.809 284.77 214.264 284.77 213.605C284.77 212.808 284.969 212.125 285.368 211.558C285.782 210.975 286.349 210.523 287.07 210.201C287.806 209.879 288.665 209.718 289.646 209.718C290.505 209.718 291.317 209.856 292.084 210.132C292.851 210.393 293.548 210.822 294.177 211.42L292.935 213.375C292.322 212.9 291.739 212.555 291.187 212.34C290.635 212.11 290.075 211.995 289.508 211.995C289.186 211.995 288.879 212.033 288.588 212.11C288.312 212.187 288.082 212.317 287.898 212.501C287.729 212.67 287.645 212.915 287.645 213.237C287.645 213.528 287.722 213.758 287.875 213.927C288.044 214.08 288.289 214.218 288.611 214.341C288.948 214.464 289.355 214.602 289.83 214.755C290.796 215.031 291.609 215.315 292.268 215.606C292.943 215.897 293.449 216.258 293.786 216.687C294.123 217.101 294.292 217.676 294.292 218.412C294.292 219.608 293.855 220.543 292.981 221.218C292.107 221.893 290.934 222.23 289.462 222.23ZM307.589 222H304.507V215.238C304.507 214.303 304.323 213.605 303.955 213.145C303.603 212.685 303.112 212.455 302.483 212.455C302.115 212.455 301.724 212.562 301.31 212.777C300.896 212.992 300.521 213.291 300.183 213.674C299.861 214.042 299.624 214.471 299.47 214.962V222H296.388V205.21H299.47V212.179C299.915 211.412 300.521 210.814 301.287 210.385C302.054 209.956 302.89 209.741 303.794 209.741C304.576 209.741 305.213 209.879 305.703 210.155C306.194 210.416 306.577 210.776 306.853 211.236C307.129 211.681 307.321 212.187 307.428 212.754C307.536 213.306 307.589 213.881 307.589 214.479V222ZM315.835 222.23C314.854 222.23 313.972 222.069 313.19 221.747C312.408 221.41 311.741 220.95 311.189 220.367C310.653 219.784 310.239 219.117 309.947 218.366C309.656 217.615 309.51 216.825 309.51 215.997C309.51 215.154 309.656 214.356 309.947 213.605C310.239 212.854 310.653 212.187 311.189 211.604C311.741 211.021 312.408 210.569 313.19 210.247C313.972 209.91 314.854 209.741 315.835 209.741C316.817 209.741 317.691 209.91 318.457 210.247C319.239 210.569 319.906 211.021 320.458 211.604C321.01 212.187 321.424 212.854 321.7 213.605C321.992 214.356 322.137 215.154 322.137 215.997C322.137 216.825 321.992 217.615 321.7 218.366C321.424 219.117 321.01 219.784 320.458 220.367C319.922 220.95 319.262 221.41 318.48 221.747C317.698 222.069 316.817 222.23 315.835 222.23ZM312.684 215.997C312.684 216.702 312.822 217.331 313.098 217.883C313.374 218.42 313.75 218.841 314.225 219.148C314.701 219.455 315.237 219.608 315.835 219.608C316.418 219.608 316.947 219.455 317.422 219.148C317.898 218.826 318.273 218.397 318.549 217.86C318.841 217.308 318.986 216.679 318.986 215.974C318.986 215.284 318.841 214.663 318.549 214.111C318.273 213.559 317.898 213.13 317.422 212.823C316.947 212.516 316.418 212.363 315.835 212.363C315.237 212.363 314.701 212.524 314.225 212.846C313.75 213.153 313.374 213.582 313.098 214.134C312.822 214.671 312.684 215.292 312.684 215.997ZM331.439 222.23C330.504 222.23 329.676 222.023 328.955 221.609C328.25 221.18 327.698 220.605 327.299 219.884V226.899H324.217V209.948H326.908V212.018C327.368 211.313 327.951 210.761 328.656 210.362C329.362 209.948 330.167 209.741 331.071 209.741C331.884 209.741 332.628 209.902 333.302 210.224C333.992 210.546 334.59 210.998 335.096 211.581C335.602 212.148 335.993 212.808 336.269 213.559C336.561 214.295 336.706 215.092 336.706 215.951C336.706 217.116 336.476 218.174 336.016 219.125C335.572 220.076 334.951 220.835 334.153 221.402C333.371 221.954 332.467 222.23 331.439 222.23ZM330.404 219.608C330.88 219.608 331.309 219.508 331.692 219.309C332.076 219.11 332.405 218.841 332.681 218.504C332.973 218.151 333.187 217.76 333.325 217.331C333.479 216.886 333.555 216.426 333.555 215.951C333.555 215.445 333.471 214.977 333.302 214.548C333.149 214.119 332.919 213.743 332.612 213.421C332.306 213.084 331.945 212.823 331.531 212.639C331.133 212.455 330.696 212.363 330.22 212.363C329.929 212.363 329.63 212.417 329.323 212.524C329.032 212.616 328.748 212.754 328.472 212.938C328.196 213.122 327.951 213.337 327.736 213.582C327.537 213.827 327.391 214.096 327.299 214.387V217.216C327.483 217.661 327.729 218.067 328.035 218.435C328.357 218.803 328.725 219.094 329.139 219.309C329.553 219.508 329.975 219.608 330.404 219.608Z" fill="#464646" fill-opacity="0.7"/>
<path d="M220.702 272V255.67H223.876V272H220.702ZM226.961 255.21H230.043V268.136C230.043 268.688 230.135 269.064 230.319 269.263C230.503 269.447 230.756 269.539 231.078 269.539C231.323 269.539 231.576 269.508 231.837 269.447C232.098 269.386 232.328 269.309 232.527 269.217L232.941 271.563C232.527 271.762 232.044 271.916 231.492 272.023C230.94 272.13 230.442 272.184 229.997 272.184C229.031 272.184 228.28 271.931 227.743 271.425C227.222 270.904 226.961 270.168 226.961 269.217V255.21ZM234.261 255.21H237.343V268.136C237.343 268.688 237.435 269.064 237.619 269.263C237.803 269.447 238.056 269.539 238.378 269.539C238.623 269.539 238.876 269.508 239.137 269.447C239.398 269.386 239.628 269.309 239.827 269.217L240.241 271.563C239.827 271.762 239.344 271.916 238.792 272.023C238.24 272.13 237.742 272.184 237.297 272.184C236.331 272.184 235.58 271.931 235.043 271.425C234.522 270.904 234.261 270.168 234.261 269.217V255.21ZM241.469 267.492V259.948H244.551V266.825C244.551 267.745 244.719 268.443 245.057 268.918C245.394 269.378 245.892 269.608 246.552 269.608C246.95 269.608 247.341 269.531 247.725 269.378C248.123 269.209 248.484 268.964 248.806 268.642C249.143 268.32 249.427 267.914 249.657 267.423V259.948H252.739V268.55C252.739 268.872 252.792 269.102 252.9 269.24C253.022 269.378 253.214 269.462 253.475 269.493V272C253.168 272.046 252.907 272.077 252.693 272.092C252.493 272.123 252.309 272.138 252.141 272.138C251.589 272.138 251.136 272.015 250.784 271.77C250.446 271.509 250.247 271.157 250.186 270.712L250.117 269.746C249.58 270.559 248.89 271.18 248.047 271.609C247.203 272.023 246.276 272.23 245.264 272.23C244.022 272.23 243.079 271.831 242.435 271.034C241.791 270.221 241.469 269.041 241.469 267.492ZM260.24 272.23C259.213 272.23 258.232 272.061 257.296 271.724C256.361 271.387 255.556 270.888 254.881 270.229L255.985 268.228C256.706 268.811 257.411 269.24 258.101 269.516C258.807 269.792 259.481 269.93 260.125 269.93C260.723 269.93 261.199 269.823 261.551 269.608C261.919 269.393 262.103 269.071 262.103 268.642C262.103 268.351 262.004 268.128 261.804 267.975C261.605 267.806 261.314 267.661 260.93 267.538C260.562 267.415 260.11 267.277 259.573 267.124C258.684 266.833 257.94 266.549 257.342 266.273C256.744 265.997 256.292 265.652 255.985 265.238C255.694 264.809 255.548 264.264 255.548 263.605C255.548 262.808 255.748 262.125 256.146 261.558C256.56 260.975 257.128 260.523 257.848 260.201C258.584 259.879 259.443 259.718 260.424 259.718C261.283 259.718 262.096 259.856 262.862 260.132C263.629 260.393 264.327 260.822 264.955 261.42L263.713 263.375C263.1 262.9 262.517 262.555 261.965 262.34C261.413 262.11 260.854 261.995 260.286 261.995C259.964 261.995 259.658 262.033 259.366 262.11C259.09 262.187 258.86 262.317 258.676 262.501C258.508 262.67 258.423 262.915 258.423 263.237C258.423 263.528 258.5 263.758 258.653 263.927C258.822 264.08 259.067 264.218 259.389 264.341C259.727 264.464 260.133 264.602 260.608 264.755C261.574 265.031 262.387 265.315 263.046 265.606C263.721 265.897 264.227 266.258 264.564 266.687C264.902 267.101 265.07 267.676 265.07 268.412C265.07 269.608 264.633 270.543 263.759 271.218C262.885 271.893 261.712 272.23 260.24 272.23ZM274.321 271.379C274.061 271.486 273.746 271.609 273.378 271.747C273.01 271.885 272.612 271.992 272.182 272.069C271.768 272.161 271.347 272.207 270.917 272.207C270.35 272.207 269.829 272.107 269.353 271.908C268.878 271.709 268.495 271.394 268.203 270.965C267.927 270.52 267.789 269.945 267.789 269.24V262.317H266.202V259.948H267.789V256.038H270.871V259.948H273.401V262.317H270.871V268.205C270.887 268.619 271.002 268.918 271.216 269.102C271.431 269.286 271.699 269.378 272.021 269.378C272.343 269.378 272.658 269.324 272.964 269.217C273.271 269.11 273.516 269.018 273.7 268.941L274.321 271.379ZM283.102 262.616C282.167 262.616 281.331 262.8 280.595 263.168C279.859 263.521 279.33 264.034 279.008 264.709V272H275.926V259.948H278.755V262.524C279.185 261.696 279.729 261.044 280.388 260.569C281.048 260.094 281.745 259.833 282.481 259.787C282.65 259.787 282.78 259.787 282.872 259.787C282.964 259.787 283.041 259.795 283.102 259.81V262.616ZM283.926 268.435C283.926 267.653 284.14 266.971 284.57 266.388C285.014 265.79 285.628 265.33 286.41 265.008C287.192 264.686 288.089 264.525 289.101 264.525C289.607 264.525 290.12 264.563 290.642 264.64C291.163 264.717 291.615 264.839 291.999 265.008V264.364C291.999 263.597 291.769 263.007 291.309 262.593C290.864 262.179 290.197 261.972 289.308 261.972C288.648 261.972 288.02 262.087 287.422 262.317C286.824 262.547 286.195 262.884 285.536 263.329L284.547 261.305C285.344 260.784 286.157 260.393 286.985 260.132C287.828 259.871 288.71 259.741 289.63 259.741C291.347 259.741 292.681 260.17 293.632 261.029C294.598 261.888 295.081 263.114 295.081 264.709V268.55C295.081 268.872 295.134 269.102 295.242 269.24C295.364 269.378 295.556 269.462 295.817 269.493V272C295.541 272.046 295.288 272.084 295.058 272.115C294.843 272.146 294.659 272.161 294.506 272.161C293.892 272.161 293.425 272.023 293.103 271.747C292.796 271.471 292.604 271.134 292.528 270.735L292.459 270.114C291.937 270.789 291.286 271.31 290.504 271.678C289.722 272.046 288.924 272.23 288.112 272.23C287.314 272.23 286.594 272.069 285.95 271.747C285.321 271.41 284.823 270.957 284.455 270.39C284.102 269.807 283.926 269.156 283.926 268.435ZM291.424 269.056C291.592 268.872 291.73 268.688 291.838 268.504C291.945 268.32 291.999 268.151 291.999 267.998V266.779C291.631 266.626 291.232 266.511 290.803 266.434C290.373 266.342 289.967 266.296 289.584 266.296C288.786 266.296 288.127 266.472 287.606 266.825C287.1 267.162 286.847 267.615 286.847 268.182C286.847 268.489 286.931 268.78 287.1 269.056C287.268 269.332 287.514 269.554 287.836 269.723C288.158 269.892 288.541 269.976 288.986 269.976C289.446 269.976 289.898 269.892 290.343 269.723C290.787 269.539 291.148 269.317 291.424 269.056ZM305.07 271.379C304.81 271.486 304.495 271.609 304.127 271.747C303.759 271.885 303.361 271.992 302.931 272.069C302.517 272.161 302.096 272.207 301.666 272.207C301.099 272.207 300.578 272.107 300.102 271.908C299.627 271.709 299.244 271.394 298.952 270.965C298.676 270.52 298.538 269.945 298.538 269.24V262.317H296.951V259.948H298.538V256.038H301.62V259.948H304.15V262.317H301.62V268.205C301.636 268.619 301.751 268.918 301.965 269.102C302.18 269.286 302.448 269.378 302.77 269.378C303.092 269.378 303.407 269.324 303.713 269.217C304.02 269.11 304.265 269.018 304.449 268.941L305.07 271.379ZM312.107 272.23C311.125 272.23 310.244 272.069 309.462 271.747C308.68 271.41 308.013 270.95 307.461 270.367C306.924 269.784 306.51 269.117 306.219 268.366C305.927 267.615 305.782 266.825 305.782 265.997C305.782 265.154 305.927 264.356 306.219 263.605C306.51 262.854 306.924 262.187 307.461 261.604C308.013 261.021 308.68 260.569 309.462 260.247C310.244 259.91 311.125 259.741 312.107 259.741C313.088 259.741 313.962 259.91 314.729 260.247C315.511 260.569 316.178 261.021 316.73 261.604C317.282 262.187 317.696 262.854 317.972 263.605C318.263 264.356 318.409 265.154 318.409 265.997C318.409 266.825 318.263 267.615 317.972 268.366C317.696 269.117 317.282 269.784 316.73 270.367C316.193 270.95 315.534 271.41 314.752 271.747C313.97 272.069 313.088 272.23 312.107 272.23ZM308.956 265.997C308.956 266.702 309.094 267.331 309.37 267.883C309.646 268.42 310.021 268.841 310.497 269.148C310.972 269.455 311.509 269.608 312.107 269.608C312.689 269.608 313.218 269.455 313.694 269.148C314.169 268.826 314.545 268.397 314.821 267.86C315.112 267.308 315.258 266.679 315.258 265.974C315.258 265.284 315.112 264.663 314.821 264.111C314.545 263.559 314.169 263.13 313.694 262.823C313.218 262.516 312.689 262.363 312.107 262.363C311.509 262.363 310.972 262.524 310.497 262.846C310.021 263.153 309.646 263.582 309.37 264.134C309.094 264.671 308.956 265.292 308.956 265.997ZM327.665 262.616C326.73 262.616 325.894 262.8 325.158 263.168C324.422 263.521 323.893 264.034 323.571 264.709V272H320.489V259.948H323.318V262.524C323.747 261.696 324.292 261.044 324.951 260.569C325.61 260.094 326.308 259.833 327.044 259.787C327.213 259.787 327.343 259.787 327.435 259.787C327.527 259.787 327.604 259.795 327.665 259.81V262.616Z" fill="#464646" fill-opacity="0.7"/>
<path d="M0.713 63.72C0.713 62.7233 0.889333 61.7497 1.242 60.799C1.61 59.833 2.139 58.959 2.829 58.177C3.519 57.3797 4.36233 56.751 5.359 56.291C6.35567 55.8157 7.49033 55.578 8.763 55.578C10.2657 55.578 11.5613 55.9077 12.65 56.567C13.754 57.2263 14.5743 58.085 15.111 59.143L12.673 60.822C12.397 60.2087 12.0367 59.7257 11.592 59.373C11.1473 59.005 10.672 58.752 10.166 58.614C9.66 58.4607 9.16167 58.384 8.671 58.384C7.87367 58.384 7.176 58.545 6.578 58.867C5.99533 59.189 5.50467 59.6107 5.106 60.132C4.70733 60.6533 4.40833 61.236 4.209 61.88C4.025 62.524 3.933 63.168 3.933 63.812C3.933 64.5327 4.048 65.2303 4.278 65.905C4.508 66.5643 4.83 67.1547 5.244 67.676C5.67333 68.182 6.17933 68.5883 6.762 68.895C7.36 69.1863 8.01167 69.332 8.717 69.332C9.223 69.332 9.73667 69.2477 10.258 69.079C10.7793 68.9103 11.2623 68.642 11.707 68.274C12.1517 67.906 12.4967 67.4307 12.742 66.848L15.341 68.343C15.019 69.1557 14.49 69.8457 13.754 70.413C13.0333 70.9803 12.2207 71.4097 11.316 71.701C10.4113 71.9923 9.51433 72.138 8.625 72.138C7.45967 72.138 6.394 71.9003 5.428 71.425C4.462 70.9343 3.62633 70.2903 2.921 69.493C2.231 68.6803 1.68667 67.7757 1.288 66.779C0.904667 65.767 0.713 64.7473 0.713 63.72ZM27.1986 59.948C27.0912 59.8407 26.8919 59.695 26.6006 59.511C26.3246 59.327 25.9796 59.1507 25.5656 58.982C25.1669 58.8133 24.7299 58.6677 24.2546 58.545C23.7792 58.407 23.2962 58.338 22.8056 58.338C21.9469 58.338 21.2952 58.499 20.8506 58.821C20.4212 59.143 20.2066 59.5953 20.2066 60.178C20.2066 60.6227 20.3446 60.9753 20.6206 61.236C20.8966 61.4967 21.3106 61.719 21.8626 61.903C22.4146 62.087 23.1046 62.2863 23.9326 62.501C25.0059 62.7617 25.9336 63.0837 26.7156 63.467C27.5129 63.835 28.1186 64.3257 28.5326 64.939C28.9619 65.537 29.1766 66.3343 29.1766 67.331C29.1766 68.205 29.0156 68.9563 28.6936 69.585C28.3716 70.1983 27.9269 70.6967 27.3596 71.08C26.7922 71.4633 26.1482 71.747 25.4276 71.931C24.7069 72.0997 23.9402 72.184 23.1276 72.184C22.3149 72.184 21.5022 72.0997 20.6896 71.931C19.8769 71.7623 19.0949 71.5247 18.3436 71.218C17.5922 70.896 16.9022 70.5127 16.2736 70.068L17.6766 67.331C17.8146 67.469 18.0599 67.653 18.4126 67.883C18.7652 68.0977 19.1946 68.32 19.7006 68.55C20.2066 68.7647 20.7586 68.9487 21.3566 69.102C21.9546 69.2553 22.5602 69.332 23.1736 69.332C24.0322 69.332 24.6839 69.1863 25.1286 68.895C25.5732 68.6037 25.7956 68.1897 25.7956 67.653C25.7956 67.1623 25.6192 66.779 25.2666 66.503C24.9139 66.227 24.4232 65.9893 23.7946 65.79C23.1659 65.5753 22.4222 65.3453 21.5636 65.1C20.5362 64.8087 19.6776 64.4867 18.9876 64.134C18.2976 63.766 17.7839 63.306 17.4466 62.754C17.1092 62.202 16.9406 61.512 16.9406 60.684C16.9406 59.5647 17.2012 58.6293 17.7226 57.878C18.2592 57.1113 18.9799 56.5363 19.8846 56.153C20.7892 55.7543 21.7936 55.555 22.8976 55.555C23.6642 55.555 24.3849 55.6393 25.0596 55.808C25.7496 55.9767 26.3936 56.199 26.9916 56.475C27.5896 56.751 28.1262 57.05 28.6016 57.372L27.1986 59.948ZM41.304 59.948C41.1967 59.8407 40.9974 59.695 40.706 59.511C40.43 59.327 40.085 59.1507 39.671 58.982C39.2724 58.8133 38.8354 58.6677 38.36 58.545C37.8847 58.407 37.4017 58.338 36.911 58.338C36.0524 58.338 35.4007 58.499 34.956 58.821C34.5267 59.143 34.312 59.5953 34.312 60.178C34.312 60.6227 34.45 60.9753 34.726 61.236C35.002 61.4967 35.416 61.719 35.968 61.903C36.52 62.087 37.21 62.2863 38.038 62.501C39.1114 62.7617 40.039 63.0837 40.821 63.467C41.6184 63.835 42.224 64.3257 42.638 64.939C43.0674 65.537 43.282 66.3343 43.282 67.331C43.282 68.205 43.121 68.9563 42.799 69.585C42.477 70.1983 42.0324 70.6967 41.465 71.08C40.8977 71.4633 40.2537 71.747 39.533 71.931C38.8124 72.0997 38.0457 72.184 37.233 72.184C36.4204 72.184 35.6077 72.0997 34.795 71.931C33.9824 71.7623 33.2004 71.5247 32.449 71.218C31.6977 70.896 31.0077 70.5127 30.379 70.068L31.782 67.331C31.92 67.469 32.1654 67.653 32.518 67.883C32.8707 68.0977 33.3 68.32 33.806 68.55C34.312 68.7647 34.864 68.9487 35.462 69.102C36.06 69.2553 36.6657 69.332 37.279 69.332C38.1377 69.332 38.7894 69.1863 39.234 68.895C39.6787 68.6037 39.901 68.1897 39.901 67.653C39.901 67.1623 39.7247 66.779 39.372 66.503C39.0194 66.227 38.5287 65.9893 37.9 65.79C37.2714 65.5753 36.5277 65.3453 35.669 65.1C34.6417 64.8087 33.783 64.4867 33.093 64.134C32.403 63.766 31.8894 63.306 31.552 62.754C31.2147 62.202 31.046 61.512 31.046 60.684C31.046 59.5647 31.3067 58.6293 31.828 57.878C32.3647 57.1113 33.0854 56.5363 33.99 56.153C34.8947 55.7543 35.899 55.555 37.003 55.555C37.7697 55.555 38.4904 55.6393 39.165 55.808C39.855 55.9767 40.499 56.199 41.097 56.475C41.695 56.751 42.2317 57.05 42.707 57.372L41.304 59.948Z" fill="#464646" fill-opacity="0.7"/>
<path d="M0.874 118.665C1.07333 118.803 1.426 118.972 1.932 119.171C2.438 119.355 3.036 119.447 3.726 119.447C4.324 119.447 4.81467 119.347 5.198 119.148C5.58133 118.933 5.87267 118.619 6.072 118.205C6.28667 117.791 6.42467 117.254 6.486 116.595C6.56267 115.936 6.601 115.146 6.601 114.226V105.67H9.775V113.973C9.775 115.2 9.706 116.319 9.568 117.331C9.43 118.343 9.16167 119.217 8.763 119.953C8.36433 120.689 7.75867 121.256 6.946 121.655C6.14867 122.054 5.083 122.253 3.749 122.253C3.013 122.253 2.35367 122.169 1.771 122C1.18833 121.831 0.651667 121.578 0.161 121.241L0.874 118.665ZM11.6482 118.435C11.6482 117.653 11.8629 116.971 12.2922 116.388C12.7369 115.79 13.3502 115.33 14.1322 115.008C14.9142 114.686 15.8112 114.525 16.8232 114.525C17.3292 114.525 17.8429 114.563 18.3642 114.64C18.8856 114.717 19.3379 114.839 19.7212 115.008V114.364C19.7212 113.597 19.4912 113.007 19.0312 112.593C18.5866 112.179 17.9196 111.972 17.0302 111.972C16.3709 111.972 15.7422 112.087 15.1442 112.317C14.5462 112.547 13.9176 112.884 13.2582 113.329L12.2692 111.305C13.0666 110.784 13.8792 110.393 14.7072 110.132C15.5506 109.871 16.4322 109.741 17.3522 109.741C19.0696 109.741 20.4036 110.17 21.3542 111.029C22.3202 111.888 22.8032 113.114 22.8032 114.709V118.55C22.8032 118.872 22.8569 119.102 22.9642 119.24C23.0869 119.378 23.2786 119.462 23.5392 119.493V122C23.2632 122.046 23.0102 122.084 22.7802 122.115C22.5656 122.146 22.3816 122.161 22.2282 122.161C21.6149 122.161 21.1472 122.023 20.8252 121.747C20.5186 121.471 20.3269 121.134 20.2502 120.735L20.1812 120.114C19.6599 120.789 19.0082 121.31 18.2262 121.678C17.4442 122.046 16.6469 122.23 15.8342 122.23C15.0369 122.23 14.3162 122.069 13.6722 121.747C13.0436 121.41 12.5452 120.957 12.1772 120.39C11.8246 119.807 11.6482 119.156 11.6482 118.435ZM19.1462 119.056C19.3149 118.872 19.4529 118.688 19.5602 118.504C19.6676 118.32 19.7212 118.151 19.7212 117.998V116.779C19.3532 116.626 18.9546 116.511 18.5252 116.434C18.0959 116.342 17.6896 116.296 17.3062 116.296C16.5089 116.296 15.8496 116.472 15.3282 116.825C14.8222 117.162 14.5692 117.615 14.5692 118.182C14.5692 118.489 14.6536 118.78 14.8222 119.056C14.9909 119.332 15.2362 119.554 15.5582 119.723C15.8802 119.892 16.2636 119.976 16.7082 119.976C17.1682 119.976 17.6206 119.892 18.0652 119.723C18.5099 119.539 18.8702 119.317 19.1462 119.056ZM28.4995 122L24.0605 109.948H27.2575L30.2935 119.194L33.3525 109.948H36.2735L31.8575 122H28.4995ZM36.7596 118.435C36.7596 117.653 36.9742 116.971 37.4036 116.388C37.8482 115.79 38.4616 115.33 39.2436 115.008C40.0256 114.686 40.9226 114.525 41.9346 114.525C42.4406 114.525 42.9542 114.563 43.4756 114.64C43.9969 114.717 44.4492 114.839 44.8326 115.008V114.364C44.8326 113.597 44.6026 113.007 44.1426 112.593C43.6979 112.179 43.0309 111.972 42.1416 111.972C41.4822 111.972 40.8536 112.087 40.2556 112.317C39.6576 112.547 39.0289 112.884 38.3696 113.329L37.3806 111.305C38.1779 110.784 38.9906 110.393 39.8186 110.132C40.6619 109.871 41.5436 109.741 42.4636 109.741C44.1809 109.741 45.5149 110.17 46.4656 111.029C47.4316 111.888 47.9146 113.114 47.9146 114.709V118.55C47.9146 118.872 47.9682 119.102 48.0756 119.24C48.1982 119.378 48.3899 119.462 48.6506 119.493V122C48.3746 122.046 48.1216 122.084 47.8916 122.115C47.6769 122.146 47.4929 122.161 47.3396 122.161C46.7262 122.161 46.2586 122.023 45.9366 121.747C45.6299 121.471 45.4382 121.134 45.3616 120.735L45.2926 120.114C44.7712 120.789 44.1196 121.31 43.3376 121.678C42.5556 122.046 41.7582 122.23 40.9456 122.23C40.1482 122.23 39.4276 122.069 38.7836 121.747C38.1549 121.41 37.6566 120.957 37.2886 120.39C36.9359 119.807 36.7596 119.156 36.7596 118.435ZM44.2576 119.056C44.4262 118.872 44.5642 118.688 44.6716 118.504C44.7789 118.32 44.8326 118.151 44.8326 117.998V116.779C44.4646 116.626 44.0659 116.511 43.6366 116.434C43.2072 116.342 42.8009 116.296 42.4176 116.296C41.6202 116.296 40.9609 116.472 40.4396 116.825C39.9336 117.162 39.6806 117.615 39.6806 118.182C39.6806 118.489 39.7649 118.78 39.9336 119.056C40.1022 119.332 40.3476 119.554 40.6696 119.723C40.9916 119.892 41.3749 119.976 41.8196 119.976C42.2796 119.976 42.7319 119.892 43.1766 119.723C43.6212 119.539 43.9816 119.317 44.2576 119.056ZM60.8226 109.948C60.7153 109.841 60.5159 109.695 60.2246 109.511C59.9486 109.327 59.6036 109.151 59.1896 108.982C58.7909 108.813 58.3539 108.668 57.8786 108.545C57.4033 108.407 56.9203 108.338 56.4296 108.338C55.5709 108.338 54.9193 108.499 54.4746 108.821C54.0453 109.143 53.8306 109.595 53.8306 110.178C53.8306 110.623 53.9686 110.975 54.2446 111.236C54.5206 111.497 54.9346 111.719 55.4866 111.903C56.0386 112.087 56.7286 112.286 57.5566 112.501C58.6299 112.762 59.5576 113.084 60.3396 113.467C61.1369 113.835 61.7426 114.326 62.1566 114.939C62.5859 115.537 62.8006 116.334 62.8006 117.331C62.8006 118.205 62.6396 118.956 62.3176 119.585C61.9956 120.198 61.5509 120.697 60.9836 121.08C60.4163 121.463 59.7723 121.747 59.0516 121.931C58.3309 122.1 57.5643 122.184 56.7516 122.184C55.9389 122.184 55.1263 122.1 54.3136 121.931C53.5009 121.762 52.7189 121.525 51.9676 121.218C51.2163 120.896 50.5263 120.513 49.8976 120.068L51.3006 117.331C51.4386 117.469 51.6839 117.653 52.0366 117.883C52.3893 118.098 52.8186 118.32 53.3246 118.55C53.8306 118.765 54.3826 118.949 54.9806 119.102C55.5786 119.255 56.1843 119.332 56.7976 119.332C57.6563 119.332 58.3079 119.186 58.7526 118.895C59.1973 118.604 59.4196 118.19 59.4196 117.653C59.4196 117.162 59.2433 116.779 58.8906 116.503C58.5379 116.227 58.0473 115.989 57.4186 115.79C56.7899 115.575 56.0463 115.345 55.1876 115.1C54.1603 114.809 53.3016 114.487 52.6116 114.134C51.9216 113.766 51.4079 113.306 51.0706 112.754C50.7333 112.202 50.5646 111.512 50.5646 110.684C50.5646 109.565 50.8253 108.629 51.3466 107.878C51.8833 107.111 52.6039 106.536 53.5086 106.153C54.4133 105.754 55.4176 105.555 56.5216 105.555C57.2883 105.555 58.0089 105.639 58.6836 105.808C59.3736 105.977 60.0176 106.199 60.6156 106.475C61.2136 106.751 61.7503 107.05 62.2256 107.372L60.8226 109.948ZM70.5121 122.23C69.5307 122.23 68.6491 122.069 67.8671 121.747C67.0851 121.41 66.4181 120.95 65.8661 120.367C65.3141 119.769 64.8847 119.094 64.5781 118.343C64.2867 117.592 64.1411 116.802 64.1411 115.974C64.1411 114.839 64.3941 113.804 64.9001 112.869C65.4214 111.918 66.1574 111.159 67.1081 110.592C68.0587 110.025 69.1857 109.741 70.4891 109.741C71.7924 109.741 72.9117 110.025 73.8471 110.592C74.7824 111.159 75.4801 111.903 75.9401 112.823L72.9271 113.743C72.6664 113.298 72.3214 112.961 71.8921 112.731C71.4627 112.486 70.9874 112.363 70.4661 112.363C69.8834 112.363 69.3467 112.516 68.8561 112.823C68.3807 113.114 68.0051 113.536 67.7291 114.088C67.4531 114.625 67.3151 115.253 67.3151 115.974C67.3151 116.679 67.4531 117.308 67.7291 117.86C68.0204 118.397 68.4037 118.826 68.8791 119.148C69.3544 119.455 69.8834 119.608 70.4661 119.608C70.8341 119.608 71.1791 119.547 71.5011 119.424C71.8384 119.301 72.1374 119.133 72.3981 118.918C72.6587 118.703 72.8504 118.458 72.9731 118.182L75.9861 119.102C75.7101 119.7 75.3037 120.237 74.7671 120.712C74.2457 121.187 73.6247 121.563 72.9041 121.839C72.1987 122.1 71.4014 122.23 70.5121 122.23ZM85.0585 112.616C84.1232 112.616 83.2875 112.8 82.5515 113.168C81.8155 113.521 81.2865 114.034 80.9645 114.709V122H77.8825V109.948H80.7115V112.524C81.1408 111.696 81.6852 111.044 82.3445 110.569C83.0038 110.094 83.7015 109.833 84.4375 109.787C84.6062 109.787 84.7365 109.787 84.8285 109.787C84.9205 109.787 84.9972 109.795 85.0585 109.81V112.616ZM86.777 122V109.948H89.859V122H86.777ZM86.777 108.269V105.21H89.859V108.269H86.777ZM99.8613 122.23C98.926 122.23 98.098 122.023 97.3773 121.609C96.672 121.18 96.12 120.605 95.7213 119.884V126.899H92.6393V109.948H95.3303V112.018C95.7903 111.313 96.373 110.761 97.0783 110.362C97.7837 109.948 98.5887 109.741 99.4933 109.741C100.306 109.741 101.05 109.902 101.724 110.224C102.414 110.546 103.012 110.998 103.518 111.581C104.024 112.148 104.415 112.808 104.691 113.559C104.983 114.295 105.128 115.092 105.128 115.951C105.128 117.116 104.898 118.174 104.438 119.125C103.994 120.076 103.373 120.835 102.575 121.402C101.793 121.954 100.889 122.23 99.8613 122.23ZM98.8263 119.608C99.3017 119.608 99.731 119.508 100.114 119.309C100.498 119.11 100.827 118.841 101.103 118.504C101.395 118.151 101.609 117.76 101.747 117.331C101.901 116.886 101.977 116.426 101.977 115.951C101.977 115.445 101.893 114.977 101.724 114.548C101.571 114.119 101.341 113.743 101.034 113.421C100.728 113.084 100.367 112.823 99.9533 112.639C99.5547 112.455 99.1177 112.363 98.6423 112.363C98.351 112.363 98.052 112.417 97.7453 112.524C97.454 112.616 97.1703 112.754 96.8943 112.938C96.6183 113.122 96.373 113.337 96.1583 113.582C95.959 113.827 95.8133 114.096 95.7213 114.387V117.216C95.9053 117.661 96.1507 118.067 96.4573 118.435C96.7793 118.803 97.1473 119.094 97.5613 119.309C97.9753 119.508 98.397 119.608 98.8263 119.608ZM114.281 121.379C114.021 121.486 113.706 121.609 113.338 121.747C112.97 121.885 112.572 121.992 112.142 122.069C111.728 122.161 111.307 122.207 110.877 122.207C110.31 122.207 109.789 122.107 109.313 121.908C108.838 121.709 108.455 121.394 108.163 120.965C107.887 120.52 107.749 119.945 107.749 119.24V112.317H106.162V109.948H107.749V106.038H110.831V109.948H113.361V112.317H110.831V118.205C110.847 118.619 110.962 118.918 111.176 119.102C111.391 119.286 111.659 119.378 111.981 119.378C112.303 119.378 112.618 119.324 112.924 119.217C113.231 119.11 113.476 119.018 113.66 118.941L114.281 121.379Z" fill="#464646" fill-opacity="0.7"/>
<path d="M227.625 22.115C226.322 22.115 225.21 21.9003 224.29 21.471C223.385 21.0263 222.649 20.4207 222.082 19.654C221.53 18.8873 221.124 18.021 220.863 17.055C220.602 16.0737 220.472 15.054 220.472 13.996V5.67H223.646V13.996C223.646 14.6707 223.707 15.33 223.83 15.974C223.968 16.6027 224.19 17.17 224.497 17.676C224.804 18.182 225.21 18.5807 225.716 18.872C226.222 19.1633 226.851 19.309 227.602 19.309C228.369 19.309 229.005 19.1633 229.511 18.872C230.032 18.5653 230.439 18.159 230.73 17.653C231.037 17.147 231.259 16.5797 231.397 15.951C231.535 15.307 231.604 14.6553 231.604 13.996V5.67H234.755V13.996C234.755 15.1153 234.617 16.1657 234.341 17.147C234.08 18.1283 233.659 18.9947 233.076 19.746C232.509 20.482 231.773 21.0647 230.868 21.494C229.963 21.908 228.882 22.115 227.625 22.115ZM239.654 5.67L243.702 11.696L247.727 5.67H251.177L245.519 13.95L250.993 22H247.543L243.702 16.204L239.838 22H236.365L241.839 13.95L236.181 5.67H239.654ZM266.709 5.67L255.301 22H251.897L263.282 5.67H266.709ZM275.961 22.115C274.658 22.115 273.546 21.9003 272.626 21.471C271.721 21.0263 270.985 20.4207 270.418 19.654C269.866 18.8873 269.46 18.021 269.199 17.055C268.938 16.0737 268.808 15.054 268.808 13.996V5.67H271.982V13.996C271.982 14.6707 272.043 15.33 272.166 15.974C272.304 16.6027 272.526 17.17 272.833 17.676C273.14 18.182 273.546 18.5807 274.052 18.872C274.558 19.1633 275.187 19.309 275.938 19.309C276.705 19.309 277.341 19.1633 277.847 18.872C278.368 18.5653 278.775 18.159 279.066 17.653C279.373 17.147 279.595 16.5797 279.733 15.951C279.871 15.307 279.94 14.6553 279.94 13.996V5.67H283.091V13.996C283.091 15.1153 282.953 16.1657 282.677 17.147C282.416 18.1283 281.995 18.9947 281.412 19.746C280.845 20.482 280.109 21.0647 279.204 21.494C278.299 21.908 277.218 22.115 275.961 22.115ZM286.288 22V5.67H289.462V22H286.288ZM298.394 22V5.67H304.328C306.107 5.67 307.594 6.038 308.79 6.774C309.986 7.49467 310.883 8.476 311.481 9.718C312.079 10.9447 312.378 12.3093 312.378 13.812C312.378 15.468 312.049 16.9093 311.389 18.136C310.73 19.3627 309.795 20.3133 308.583 20.988C307.387 21.6627 305.969 22 304.328 22H298.394ZM309.181 13.812C309.181 12.754 308.99 11.8263 308.606 11.029C308.223 10.2163 307.671 9.58767 306.95 9.143C306.23 8.683 305.356 8.453 304.328 8.453H301.568V19.217H304.328C305.371 19.217 306.253 18.987 306.973 18.527C307.694 18.0517 308.238 17.4077 308.606 16.595C308.99 15.767 309.181 14.8393 309.181 13.812ZM320.148 22.23C319.182 22.23 318.308 22.069 317.526 21.747C316.744 21.4097 316.077 20.9573 315.525 20.39C314.973 19.8073 314.544 19.148 314.237 18.412C313.946 17.6607 313.8 16.871 313.8 16.043C313.8 14.893 314.053 13.8427 314.559 12.892C315.081 11.9413 315.817 11.1823 316.767 10.615C317.733 10.0323 318.868 9.741 320.171 9.741C321.49 9.741 322.617 10.0323 323.552 10.615C324.488 11.1823 325.201 11.9413 325.691 12.892C326.197 13.8273 326.45 14.8393 326.45 15.928C326.45 16.112 326.443 16.3037 326.427 16.503C326.412 16.687 326.397 16.8403 326.381 16.963H317.066C317.128 17.5763 317.304 18.113 317.595 18.573C317.902 19.033 318.285 19.3857 318.745 19.631C319.221 19.861 319.727 19.976 320.263 19.976C320.877 19.976 321.452 19.8303 321.988 19.539C322.54 19.2323 322.916 18.8337 323.115 18.343L325.76 19.079C325.469 19.6923 325.047 20.2367 324.495 20.712C323.959 21.1873 323.322 21.563 322.586 21.839C321.85 22.0997 321.038 22.23 320.148 22.23ZM316.997 15.008H323.299C323.238 14.3947 323.062 13.8657 322.77 13.421C322.494 12.961 322.126 12.6083 321.666 12.363C321.206 12.1023 320.693 11.972 320.125 11.972C319.573 11.972 319.067 12.1023 318.607 12.363C318.163 12.6083 317.795 12.961 317.503 13.421C317.227 13.8657 317.059 14.3947 316.997 15.008ZM332.767 22.23C331.739 22.23 330.758 22.0613 329.823 21.724C328.887 21.3867 328.082 20.8883 327.408 20.229L328.512 18.228C329.232 18.8107 329.938 19.24 330.628 19.516C331.333 19.792 332.008 19.93 332.652 19.93C333.25 19.93 333.725 19.8227 334.078 19.608C334.446 19.3933 334.63 19.0713 334.63 18.642C334.63 18.3507 334.53 18.1283 334.331 17.975C334.131 17.8063 333.84 17.6607 333.457 17.538C333.089 17.4153 332.636 17.2773 332.1 17.124C331.21 16.8327 330.467 16.549 329.869 16.273C329.271 15.997 328.818 15.652 328.512 15.238C328.22 14.8087 328.075 14.2643 328.075 13.605C328.075 12.8077 328.274 12.1253 328.673 11.558C329.087 10.9753 329.654 10.523 330.375 10.201C331.111 9.879 331.969 9.718 332.951 9.718C333.809 9.718 334.622 9.856 335.389 10.132C336.155 10.3927 336.853 10.822 337.482 11.42L336.24 13.375C335.626 12.8997 335.044 12.5547 334.492 12.34C333.94 12.11 333.38 11.995 332.813 11.995C332.491 11.995 332.184 12.0333 331.893 12.11C331.617 12.1867 331.387 12.317 331.203 12.501C331.034 12.6697 330.95 12.915 330.95 13.237C330.95 13.5283 331.026 13.7583 331.18 13.927C331.348 14.0803 331.594 14.2183 331.916 14.341C332.253 14.4637 332.659 14.6017 333.135 14.755C334.101 15.031 334.913 15.3147 335.573 15.606C336.247 15.8973 336.753 16.2577 337.091 16.687C337.428 17.101 337.597 17.676 337.597 18.412C337.597 19.608 337.16 20.5433 336.286 21.218C335.412 21.8927 334.239 22.23 332.767 22.23ZM339.693 22V9.948H342.775V22H339.693ZM339.693 8.269V5.21H342.775V8.269H339.693ZM350.27 22.069C349.473 22.069 348.737 21.9157 348.062 21.609C347.403 21.287 346.828 20.8423 346.337 20.275C345.862 19.7077 345.494 19.056 345.233 18.32C344.973 17.584 344.842 16.802 344.842 15.974C344.842 15.1 344.98 14.2873 345.256 13.536C345.532 12.7847 345.916 12.1253 346.406 11.558C346.912 10.9753 347.503 10.5307 348.177 10.224C348.867 9.902 349.626 9.741 350.454 9.741C351.39 9.741 352.21 9.95567 352.915 10.385C353.621 10.799 354.203 11.3587 354.663 12.064V9.948H357.354V21.425C357.354 22.621 357.063 23.6407 356.48 24.484C355.913 25.3427 355.123 25.9943 354.111 26.439C353.099 26.899 351.949 27.129 350.661 27.129C349.358 27.129 348.254 26.9067 347.349 26.462C346.445 26.0327 345.67 25.4193 345.026 24.622L346.705 22.989C347.165 23.5563 347.74 24.001 348.43 24.323C349.136 24.645 349.879 24.806 350.661 24.806C351.321 24.806 351.919 24.6833 352.455 24.438C353.007 24.208 353.444 23.84 353.766 23.334C354.104 22.8433 354.272 22.207 354.272 21.425V19.907C353.874 20.597 353.306 21.1337 352.57 21.517C351.85 21.885 351.083 22.069 350.27 22.069ZM351.305 19.608C351.643 19.608 351.965 19.5543 352.271 19.447C352.578 19.3397 352.862 19.194 353.122 19.01C353.383 18.826 353.613 18.6113 353.812 18.366C354.012 18.1053 354.165 17.8447 354.272 17.584V14.709C354.088 14.2337 353.828 13.8197 353.49 13.467C353.168 13.1143 352.8 12.846 352.386 12.662C351.988 12.4627 351.566 12.363 351.121 12.363C350.646 12.363 350.217 12.4627 349.833 12.662C349.45 12.8613 349.12 13.145 348.844 13.513C348.568 13.8657 348.354 14.2643 348.2 14.709C348.062 15.1383 347.993 15.5907 347.993 16.066C347.993 16.5567 348.078 17.0167 348.246 17.446C348.415 17.8753 348.645 18.251 348.936 18.573C349.243 18.895 349.596 19.148 349.994 19.332C350.408 19.516 350.845 19.608 351.305 19.608ZM371.333 22H368.251V15.238C368.251 14.272 368.083 13.5667 367.745 13.122C367.408 12.6773 366.94 12.455 366.342 12.455C365.928 12.455 365.507 12.5623 365.077 12.777C364.663 12.9917 364.288 13.2907 363.95 13.674C363.613 14.042 363.368 14.4713 363.214 14.962V22H360.132V9.948H362.915V12.179C363.222 11.6577 363.613 11.2207 364.088 10.868C364.564 10.5 365.108 10.224 365.721 10.04C366.35 9.84067 367.009 9.741 367.699 9.741C368.451 9.741 369.064 9.879 369.539 10.155C370.03 10.4157 370.398 10.776 370.643 11.236C370.904 11.6807 371.08 12.1867 371.172 12.754C371.28 13.3213 371.333 13.8963 371.333 14.479V22Z" fill="#464646" fill-opacity="0.7"/>
<path d="M1.702 222V205.67H12.673V208.453H4.876V212.662H11.362V215.238H4.876V222H1.702ZM14.61 222V209.948H17.692V222H14.61ZM14.61 208.269V205.21H17.692V208.269H14.61ZM25.1873 222.069C24.39 222.069 23.654 221.916 22.9793 221.609C22.32 221.287 21.745 220.842 21.2543 220.275C20.779 219.708 20.411 219.056 20.1503 218.32C19.8897 217.584 19.7593 216.802 19.7593 215.974C19.7593 215.1 19.8973 214.287 20.1733 213.536C20.4493 212.785 20.8327 212.125 21.3233 211.558C21.8293 210.975 22.4197 210.531 23.0943 210.224C23.7843 209.902 24.5433 209.741 25.3713 209.741C26.3067 209.741 27.127 209.956 27.8323 210.385C28.5377 210.799 29.1203 211.359 29.5803 212.064V209.948H32.2713V221.425C32.2713 222.621 31.98 223.641 31.3973 224.484C30.83 225.343 30.0403 225.994 29.0283 226.439C28.0163 226.899 26.8663 227.129 25.5783 227.129C24.275 227.129 23.171 226.907 22.2663 226.462C21.3617 226.033 20.5873 225.419 19.9433 224.622L21.6223 222.989C22.0823 223.556 22.6573 224.001 23.3473 224.323C24.0527 224.645 24.7963 224.806 25.5783 224.806C26.2377 224.806 26.8357 224.683 27.3723 224.438C27.9243 224.208 28.3613 223.84 28.6833 223.334C29.0207 222.843 29.1893 222.207 29.1893 221.425V219.907C28.7907 220.597 28.2233 221.134 27.4873 221.517C26.7667 221.885 26 222.069 25.1873 222.069ZM26.2223 219.608C26.5597 219.608 26.8817 219.554 27.1883 219.447C27.495 219.34 27.7787 219.194 28.0393 219.01C28.3 218.826 28.53 218.611 28.7293 218.366C28.9287 218.105 29.082 217.845 29.1893 217.584V214.709C29.0053 214.234 28.7447 213.82 28.4073 213.467C28.0853 213.114 27.7173 212.846 27.3033 212.662C26.9047 212.463 26.483 212.363 26.0383 212.363C25.563 212.363 25.1337 212.463 24.7503 212.662C24.367 212.861 24.0373 213.145 23.7613 213.513C23.4853 213.866 23.2707 214.264 23.1173 214.709C22.9793 215.138 22.9103 215.591 22.9103 216.066C22.9103 216.557 22.9947 217.017 23.1633 217.446C23.332 217.875 23.562 218.251 23.8533 218.573C24.16 218.895 24.5127 219.148 24.9113 219.332C25.3253 219.516 25.7623 219.608 26.2223 219.608ZM53.7715 222H50.6895V215.238C50.6895 214.287 50.5208 213.59 50.1835 213.145C49.8615 212.685 49.4092 212.455 48.8265 212.455C48.2285 212.455 47.6535 212.693 47.1015 213.168C46.5648 213.628 46.1815 214.234 45.9515 214.985V222H42.8695V215.238C42.8695 214.272 42.7008 213.567 42.3635 213.122C42.0415 212.677 41.5892 212.455 41.0065 212.455C40.4085 212.455 39.8335 212.685 39.2815 213.145C38.7448 213.605 38.3615 214.211 38.1315 214.962V222H35.0495V209.948H37.8325V212.179C38.2925 211.397 38.9058 210.799 39.6725 210.385C40.4392 209.956 41.3208 209.741 42.3175 209.741C43.3142 209.741 44.0885 209.986 44.6405 210.477C45.2078 210.968 45.5682 211.573 45.7215 212.294C46.2122 211.466 46.8332 210.837 47.5845 210.408C48.3512 209.963 49.2098 209.741 50.1605 209.741C50.9118 209.741 51.5175 209.879 51.9775 210.155C52.4528 210.416 52.8208 210.776 53.0815 211.236C53.3422 211.681 53.5185 212.187 53.6105 212.754C53.7178 213.321 53.7715 213.896 53.7715 214.479V222ZM55.6268 218.435C55.6268 217.653 55.8414 216.971 56.2708 216.388C56.7154 215.79 57.3288 215.33 58.1108 215.008C58.8928 214.686 59.7898 214.525 60.8018 214.525C61.3078 214.525 61.8214 214.563 62.3428 214.64C62.8641 214.717 63.3164 214.839 63.6998 215.008V214.364C63.6998 213.597 63.4698 213.007 63.0098 212.593C62.5651 212.179 61.8981 211.972 61.0088 211.972C60.3494 211.972 59.7208 212.087 59.1228 212.317C58.5248 212.547 57.8961 212.884 57.2368 213.329L56.2478 211.305C57.0451 210.784 57.8578 210.393 58.6858 210.132C59.5291 209.871 60.4108 209.741 61.3308 209.741C63.0481 209.741 64.3821 210.17 65.3328 211.029C66.2988 211.888 66.7818 213.114 66.7818 214.709V218.55C66.7818 218.872 66.8354 219.102 66.9428 219.24C67.0654 219.378 67.2571 219.462 67.5178 219.493V222C67.2418 222.046 66.9888 222.084 66.7588 222.115C66.5441 222.146 66.3601 222.161 66.2068 222.161C65.5934 222.161 65.1258 222.023 64.8038 221.747C64.4971 221.471 64.3054 221.134 64.2288 220.735L64.1598 220.114C63.6384 220.789 62.9868 221.31 62.2048 221.678C61.4228 222.046 60.6254 222.23 59.8128 222.23C59.0154 222.23 58.2948 222.069 57.6508 221.747C57.0221 221.41 56.5238 220.957 56.1558 220.39C55.8031 219.807 55.6268 219.156 55.6268 218.435ZM63.1248 219.056C63.2934 218.872 63.4314 218.688 63.5388 218.504C63.6461 218.32 63.6998 218.151 63.6998 217.998V216.779C63.3318 216.626 62.9331 216.511 62.5038 216.434C62.0744 216.342 61.6681 216.296 61.2848 216.296C60.4874 216.296 59.8281 216.472 59.3068 216.825C58.8008 217.162 58.5478 217.615 58.5478 218.182C58.5478 218.489 58.6321 218.78 58.8008 219.056C58.9694 219.332 59.2148 219.554 59.5368 219.723C59.8588 219.892 60.2421 219.976 60.6868 219.976C61.1468 219.976 61.5991 219.892 62.0438 219.723C62.4884 219.539 62.8488 219.317 63.1248 219.056Z" fill="#464646" fill-opacity="0.7"/>
<path d="M3.381 255.67L7.797 268.228L12.167 255.67H15.502L9.315 272H6.256L0.046 255.67H3.381ZM26.5023 259.948C26.395 259.841 26.1956 259.695 25.9043 259.511C25.6283 259.327 25.2833 259.151 24.8693 258.982C24.4706 258.813 24.0336 258.668 23.5583 258.545C23.083 258.407 22.6 258.338 22.1093 258.338C21.2506 258.338 20.599 258.499 20.1543 258.821C19.725 259.143 19.5103 259.595 19.5103 260.178C19.5103 260.623 19.6483 260.975 19.9243 261.236C20.2003 261.497 20.6143 261.719 21.1663 261.903C21.7183 262.087 22.4083 262.286 23.2363 262.501C24.3096 262.762 25.2373 263.084 26.0193 263.467C26.8166 263.835 27.4223 264.326 27.8363 264.939C28.2656 265.537 28.4803 266.334 28.4803 267.331C28.4803 268.205 28.3193 268.956 27.9973 269.585C27.6753 270.198 27.2306 270.697 26.6633 271.08C26.096 271.463 25.452 271.747 24.7313 271.931C24.0106 272.1 23.244 272.184 22.4313 272.184C21.6186 272.184 20.806 272.1 19.9933 271.931C19.1806 271.762 18.3986 271.525 17.6473 271.218C16.896 270.896 16.206 270.513 15.5773 270.068L16.9803 267.331C17.1183 267.469 17.3636 267.653 17.7163 267.883C18.069 268.098 18.4983 268.32 19.0043 268.55C19.5103 268.765 20.0623 268.949 20.6603 269.102C21.2583 269.255 21.864 269.332 22.4773 269.332C23.336 269.332 23.9876 269.186 24.4323 268.895C24.877 268.604 25.0993 268.19 25.0993 267.653C25.0993 267.162 24.923 266.779 24.5703 266.503C24.2176 266.227 23.727 265.989 23.0983 265.79C22.4696 265.575 21.726 265.345 20.8673 265.1C19.84 264.809 18.9813 264.487 18.2913 264.134C17.6013 263.766 17.0876 263.306 16.7503 262.754C16.413 262.202 16.2443 261.512 16.2443 260.684C16.2443 259.565 16.505 258.629 17.0263 257.878C17.563 257.111 18.2836 256.536 19.1883 256.153C20.093 255.754 21.0973 255.555 22.2013 255.555C22.968 255.555 23.6886 255.639 24.3633 255.808C25.0533 255.977 25.6973 256.199 26.2953 256.475C26.8933 256.751 27.43 257.05 27.9053 257.372L26.5023 259.948ZM29.8898 263.72C29.8898 262.723 30.0661 261.75 30.4188 260.799C30.7868 259.833 31.3158 258.959 32.0058 258.177C32.6958 257.38 33.5391 256.751 34.5358 256.291C35.5324 255.816 36.6671 255.578 37.9398 255.578C39.4424 255.578 40.7381 255.908 41.8268 256.567C42.9308 257.226 43.7511 258.085 44.2878 259.143L41.8498 260.822C41.5738 260.209 41.2134 259.726 40.7688 259.373C40.3241 259.005 39.8488 258.752 39.3428 258.614C38.8368 258.461 38.3384 258.384 37.8478 258.384C37.0504 258.384 36.3528 258.545 35.7548 258.867C35.1721 259.189 34.6814 259.611 34.2828 260.132C33.8841 260.653 33.5851 261.236 33.3858 261.88C33.2018 262.524 33.1098 263.168 33.1098 263.812C33.1098 264.533 33.2248 265.23 33.4548 265.905C33.6848 266.564 34.0068 267.155 34.4208 267.676C34.8501 268.182 35.3561 268.588 35.9388 268.895C36.5368 269.186 37.1884 269.332 37.8938 269.332C38.3998 269.332 38.9134 269.248 39.4348 269.079C39.9561 268.91 40.4391 268.642 40.8838 268.274C41.3284 267.906 41.6734 267.431 41.9188 266.848L44.5178 268.343C44.1958 269.156 43.6668 269.846 42.9308 270.413C42.2101 270.98 41.3974 271.41 40.4928 271.701C39.5881 271.992 38.6911 272.138 37.8018 272.138C36.6364 272.138 35.5708 271.9 34.6048 271.425C33.6388 270.934 32.8031 270.29 32.0978 269.493C31.4078 268.68 30.8634 267.776 30.4648 266.779C30.0814 265.767 29.8898 264.747 29.8898 263.72ZM51.8684 272.23C50.8871 272.23 50.0054 272.069 49.2234 271.747C48.4414 271.41 47.7744 270.95 47.2224 270.367C46.6857 269.784 46.2717 269.117 45.9804 268.366C45.6891 267.615 45.5434 266.825 45.5434 265.997C45.5434 265.154 45.6891 264.356 45.9804 263.605C46.2717 262.854 46.6857 262.187 47.2224 261.604C47.7744 261.021 48.4414 260.569 49.2234 260.247C50.0054 259.91 50.8871 259.741 51.8684 259.741C52.8497 259.741 53.7237 259.91 54.4904 260.247C55.2724 260.569 55.9394 261.021 56.4914 261.604C57.0434 262.187 57.4574 262.854 57.7334 263.605C58.0247 264.356 58.1704 265.154 58.1704 265.997C58.1704 266.825 58.0247 267.615 57.7334 268.366C57.4574 269.117 57.0434 269.784 56.4914 270.367C55.9547 270.95 55.2954 271.41 54.5134 271.747C53.7314 272.069 52.8497 272.23 51.8684 272.23ZM48.7174 265.997C48.7174 266.702 48.8554 267.331 49.1314 267.883C49.4074 268.42 49.7831 268.841 50.2584 269.148C50.7337 269.455 51.2704 269.608 51.8684 269.608C52.4511 269.608 52.9801 269.455 53.4554 269.148C53.9307 268.826 54.3064 268.397 54.5824 267.86C54.8737 267.308 55.0194 266.679 55.0194 265.974C55.0194 265.284 54.8737 264.663 54.5824 264.111C54.3064 263.559 53.9307 263.13 53.4554 262.823C52.9801 262.516 52.4511 262.363 51.8684 262.363C51.2704 262.363 50.7337 262.524 50.2584 262.846C49.7831 263.153 49.4074 263.582 49.1314 264.134C48.8554 264.671 48.7174 265.292 48.7174 265.997ZM59.5147 265.974C59.5147 264.809 59.7447 263.758 60.2047 262.823C60.6647 261.872 61.301 261.121 62.1137 260.569C62.9263 260.017 63.854 259.741 64.8967 259.741C65.786 259.741 66.5833 259.963 67.2887 260.408C68.0093 260.837 68.569 261.389 68.9677 262.064V255.21H72.0497V268.55C72.0497 268.872 72.1033 269.102 72.2107 269.24C72.318 269.378 72.502 269.462 72.7627 269.493V272C72.226 272.107 71.789 272.161 71.4517 272.161C70.8997 272.161 70.4397 272.023 70.0717 271.747C69.719 271.471 69.5197 271.111 69.4737 270.666L69.4277 269.907C68.983 270.658 68.3773 271.233 67.6107 271.632C66.8593 272.031 66.0697 272.23 65.2417 272.23C64.4137 272.23 63.647 272.069 62.9417 271.747C62.2517 271.425 61.646 270.98 61.1247 270.413C60.6187 269.846 60.22 269.186 59.9287 268.435C59.6527 267.668 59.5147 266.848 59.5147 265.974ZM68.9677 267.584V264.709C68.8143 264.264 68.569 263.866 68.2317 263.513C67.8943 263.16 67.5187 262.884 67.1047 262.685C66.6907 262.47 66.2767 262.363 65.8627 262.363C65.3873 262.363 64.958 262.463 64.5747 262.662C64.1913 262.861 63.854 263.13 63.5627 263.467C63.2867 263.804 63.072 264.195 62.9187 264.64C62.7807 265.085 62.7117 265.552 62.7117 266.043C62.7117 266.534 62.7883 267.001 62.9417 267.446C63.1103 267.875 63.348 268.251 63.6547 268.573C63.9613 268.895 64.314 269.148 64.7127 269.332C65.1267 269.516 65.5713 269.608 66.0467 269.608C66.338 269.608 66.6293 269.562 66.9207 269.47C67.2273 269.363 67.511 269.225 67.7717 269.056C68.0477 268.872 68.2853 268.657 68.4847 268.412C68.6993 268.151 68.8603 267.875 68.9677 267.584ZM80.6639 272.23C79.6979 272.23 78.8239 272.069 78.0419 271.747C77.2599 271.41 76.5929 270.957 76.0409 270.39C75.4889 269.807 75.0595 269.148 74.7529 268.412C74.4615 267.661 74.3159 266.871 74.3159 266.043C74.3159 264.893 74.5689 263.843 75.0749 262.892C75.5962 261.941 76.3322 261.182 77.2829 260.615C78.2489 260.032 79.3835 259.741 80.6869 259.741C82.0055 259.741 83.1325 260.032 84.0679 260.615C85.0032 261.182 85.7162 261.941 86.2069 262.892C86.7129 263.827 86.9659 264.839 86.9659 265.928C86.9659 266.112 86.9582 266.304 86.9429 266.503C86.9275 266.687 86.9122 266.84 86.8969 266.963H77.5819C77.6432 267.576 77.8195 268.113 78.1109 268.573C78.4175 269.033 78.8009 269.386 79.2609 269.631C79.7362 269.861 80.2422 269.976 80.7789 269.976C81.3922 269.976 81.9672 269.83 82.5039 269.539C83.0559 269.232 83.4315 268.834 83.6309 268.343L86.2759 269.079C85.9845 269.692 85.5629 270.237 85.0109 270.712C84.4742 271.187 83.8379 271.563 83.1019 271.839C82.3659 272.1 81.5532 272.23 80.6639 272.23ZM77.5129 265.008H83.8149C83.7535 264.395 83.5772 263.866 83.2859 263.421C83.0099 262.961 82.6419 262.608 82.1819 262.363C81.7219 262.102 81.2082 261.972 80.6409 261.972C80.0889 261.972 79.5829 262.102 79.1229 262.363C78.6782 262.608 78.3102 262.961 78.0189 263.421C77.7429 263.866 77.5742 264.395 77.5129 265.008Z" fill="#464646" fill-opacity="0.7"/>
<path d="M227.487 122.115C226.429 122.115 225.425 121.9 224.474 121.471C223.539 121.042 222.711 120.451 221.99 119.7C221.285 118.933 220.733 118.044 220.334 117.032C219.935 116.02 219.736 114.924 219.736 113.743C219.736 112.624 219.935 111.573 220.334 110.592C220.733 109.595 221.292 108.721 222.013 107.97C222.734 107.219 223.577 106.628 224.543 106.199C225.509 105.77 226.559 105.555 227.694 105.555C229.227 105.555 230.538 105.885 231.627 106.544C232.731 107.188 233.559 108.047 234.111 109.12L231.742 110.868C231.328 110.055 230.745 109.434 229.994 109.005C229.258 108.576 228.453 108.361 227.579 108.361C226.889 108.361 226.26 108.507 225.693 108.798C225.126 109.089 224.635 109.488 224.221 109.994C223.807 110.5 223.485 111.083 223.255 111.742C223.04 112.401 222.933 113.099 222.933 113.835C222.933 114.617 223.048 115.338 223.278 115.997C223.523 116.656 223.861 117.231 224.29 117.722C224.735 118.213 225.248 118.604 225.831 118.895C226.414 119.171 227.058 119.309 227.763 119.309C228.591 119.309 229.381 119.094 230.132 118.665C230.899 118.236 231.612 117.607 232.271 116.779V119.907C230.906 121.379 229.312 122.115 227.487 122.115ZM232.041 115.928H228.752V113.605H234.663V122H232.041V115.928ZM237.069 122V109.948H240.151V122H237.069ZM237.069 108.269V105.21H240.151V108.269H237.069ZM250.153 121.379C249.893 121.486 249.578 121.609 249.21 121.747C248.842 121.885 248.444 121.992 248.014 122.069C247.6 122.161 247.179 122.207 246.749 122.207C246.182 122.207 245.661 122.107 245.185 121.908C244.71 121.709 244.327 121.394 244.035 120.965C243.759 120.52 243.621 119.945 243.621 119.24V112.317H242.034V109.948H243.621V106.038H246.703V109.948H249.233V112.317H246.703V118.205C246.719 118.619 246.834 118.918 247.048 119.102C247.263 119.286 247.531 119.378 247.853 119.378C248.175 119.378 248.49 119.324 248.796 119.217C249.103 119.11 249.348 119.018 249.532 118.941L250.153 121.379Z" fill="#464646" fill-opacity="0.7"/>
<path d="M234.019 172V161.282L229.833 169.263H228.062L223.876 161.282V172H220.702V155.67H224.106L228.936 164.962L233.812 155.67H237.193V172H234.019ZM240.303 172V159.948H243.385V172H240.303ZM240.303 158.269V155.21H243.385V158.269H240.303ZM253.342 162.616C252.406 162.616 251.571 162.8 250.835 163.168C250.099 163.521 249.57 164.034 249.248 164.709V172H246.166V159.948H248.995V162.524C249.424 161.696 249.968 161.044 250.628 160.569C251.287 160.094 251.985 159.833 252.721 159.787C252.889 159.787 253.02 159.787 253.112 159.787C253.204 159.787 253.28 159.795 253.342 159.81V162.616ZM260.469 172.23C259.488 172.23 258.606 172.069 257.824 171.747C257.042 171.41 256.375 170.95 255.823 170.367C255.286 169.784 254.872 169.117 254.581 168.366C254.29 167.615 254.144 166.825 254.144 165.997C254.144 165.154 254.29 164.356 254.581 163.605C254.872 162.854 255.286 162.187 255.823 161.604C256.375 161.021 257.042 160.569 257.824 160.247C258.606 159.91 259.488 159.741 260.469 159.741C261.45 159.741 262.324 159.91 263.091 160.247C263.873 160.569 264.54 161.021 265.092 161.604C265.644 162.187 266.058 162.854 266.334 163.605C266.625 164.356 266.771 165.154 266.771 165.997C266.771 166.825 266.625 167.615 266.334 168.366C266.058 169.117 265.644 169.784 265.092 170.367C264.555 170.95 263.896 171.41 263.114 171.747C262.332 172.069 261.45 172.23 260.469 172.23ZM257.318 165.997C257.318 166.702 257.456 167.331 257.732 167.883C258.008 168.42 258.384 168.841 258.859 169.148C259.334 169.455 259.871 169.608 260.469 169.608C261.052 169.608 261.581 169.455 262.056 169.148C262.531 168.826 262.907 168.397 263.183 167.86C263.474 167.308 263.62 166.679 263.62 165.974C263.62 165.284 263.474 164.663 263.183 164.111C262.907 163.559 262.531 163.13 262.056 162.823C261.581 162.516 261.052 162.363 260.469 162.363C259.871 162.363 259.334 162.524 258.859 162.846C258.384 163.153 258.008 163.582 257.732 164.134C257.456 164.671 257.318 165.292 257.318 165.997Z" fill="#464646" fill-opacity="0.7"/>
<path d="M8.487 172.115C7.429 172.115 6.42467 171.9 5.474 171.471C4.53867 171.042 3.71067 170.451 2.99 169.7C2.28467 168.933 1.73267 168.044 1.334 167.032C0.935333 166.02 0.736 164.924 0.736 163.743C0.736 162.624 0.935333 161.573 1.334 160.592C1.73267 159.595 2.29233 158.721 3.013 157.97C3.73367 157.219 4.577 156.628 5.543 156.199C6.509 155.77 7.55933 155.555 8.694 155.555C10.2273 155.555 11.5383 155.885 12.627 156.544C13.731 157.188 14.559 158.047 15.111 159.12L12.742 160.868C12.328 160.055 11.7453 159.434 10.994 159.005C10.258 158.576 9.453 158.361 8.579 158.361C7.889 158.361 7.26033 158.507 6.693 158.798C6.12567 159.089 5.635 159.488 5.221 159.994C4.807 160.5 4.485 161.083 4.255 161.742C4.04033 162.401 3.933 163.099 3.933 163.835C3.933 164.617 4.048 165.338 4.278 165.997C4.52333 166.656 4.86067 167.231 5.29 167.722C5.73467 168.213 6.24833 168.604 6.831 168.895C7.41367 169.171 8.05767 169.309 8.763 169.309C9.591 169.309 10.3807 169.094 11.132 168.665C11.8987 168.236 12.6117 167.607 13.271 166.779V169.907C11.9063 171.379 10.3117 172.115 8.487 172.115ZM13.041 165.928H9.752V163.605H15.663V172H13.041V165.928ZM18.069 172V159.948H21.151V172H18.069ZM18.069 158.269V155.21H21.151V158.269H18.069ZM31.1533 171.379C30.8927 171.486 30.5783 171.609 30.2103 171.747C29.8423 171.885 29.4437 171.992 29.0143 172.069C28.6003 172.161 28.1787 172.207 27.7493 172.207C27.182 172.207 26.6607 172.107 26.1853 171.908C25.71 171.709 25.3267 171.394 25.0353 170.965C24.7593 170.52 24.6213 169.945 24.6213 169.24V162.317H23.0343V159.948H24.6213V156.038H27.7033V159.948H30.2333V162.317H27.7033V168.205C27.7187 168.619 27.8337 168.918 28.0483 169.102C28.263 169.286 28.5313 169.378 28.8533 169.378C29.1753 169.378 29.4897 169.324 29.7963 169.217C30.103 169.11 30.3483 169.018 30.5323 168.941L31.1533 171.379ZM46.7885 155.67V172H43.6375V165.031H36.2315V172H33.0575V155.67H36.2315V162.271H43.6375V155.67H46.7885ZM49.7812 167.492V159.948H52.8632V166.825C52.8632 167.745 53.0318 168.443 53.3692 168.918C53.7065 169.378 54.2048 169.608 54.8642 169.608C55.2628 169.608 55.6538 169.531 56.0372 169.378C56.4358 169.209 56.7962 168.964 57.1182 168.642C57.4555 168.32 57.7392 167.914 57.9692 167.423V159.948H61.0512V168.55C61.0512 168.872 61.1048 169.102 61.2122 169.24C61.3348 169.378 61.5265 169.462 61.7872 169.493V172C61.4805 172.046 61.2198 172.077 61.0052 172.092C60.8058 172.123 60.6218 172.138 60.4532 172.138C59.9012 172.138 59.4488 172.015 59.0962 171.77C58.7588 171.509 58.5595 171.157 58.4982 170.712L58.4292 169.746C57.8925 170.559 57.2025 171.18 56.3592 171.609C55.5158 172.023 54.5882 172.23 53.5762 172.23C52.3342 172.23 51.3912 171.831 50.7472 171.034C50.1032 170.221 49.7812 169.041 49.7812 167.492ZM70.9679 172.23C70.0479 172.23 69.2276 172.023 68.5069 171.609C67.7863 171.195 67.2189 170.628 66.8049 169.907V172H64.1139V155.21H67.1959V162.064C67.6253 161.343 68.1849 160.776 68.8749 160.362C69.5803 159.948 70.4006 159.741 71.3359 159.741C72.1179 159.741 72.8309 159.91 73.4749 160.247C74.1189 160.569 74.6709 161.021 75.1309 161.604C75.6063 162.187 75.9666 162.854 76.2119 163.605C76.4726 164.356 76.6029 165.161 76.6029 166.02C76.6029 166.879 76.4573 167.684 76.1659 168.435C75.8899 169.186 75.4989 169.853 74.9929 170.436C74.4869 171.003 73.8889 171.448 73.1989 171.77C72.5243 172.077 71.7806 172.23 70.9679 172.23ZM70.1169 169.608C70.6076 169.608 71.0523 169.516 71.4509 169.332C71.8649 169.133 72.2176 168.872 72.5089 168.55C72.8156 168.228 73.0456 167.852 73.1989 167.423C73.3676 166.978 73.4519 166.518 73.4519 166.043C73.4519 165.384 73.3139 164.778 73.0379 164.226C72.7773 163.659 72.4093 163.206 71.9339 162.869C71.4739 162.532 70.9296 162.363 70.3009 162.363C69.8563 162.363 69.4269 162.47 69.0129 162.685C68.6143 162.884 68.2539 163.16 67.9319 163.513C67.6253 163.866 67.3799 164.264 67.1959 164.709V167.584C67.2879 167.891 67.4336 168.167 67.6329 168.412C67.8476 168.657 68.0929 168.872 68.3689 169.056C68.6449 169.225 68.9286 169.363 69.2199 169.47C69.5266 169.562 69.8256 169.608 70.1169 169.608Z" fill="#464646" fill-opacity="0.7"/>
</svg>
