<svg width="172" height="24" viewBox="0 0 172 24" fill="none" xmlns="http://www.w3.org/2000/svg">
<path d="M0.62 12.3C0.62 11.4333 0.773333 10.5867 1.08 9.76C1.4 8.92 1.86 8.16 2.46 7.48C3.06 6.78667 3.79333 6.24 4.66 5.84C5.52667 5.42667 6.51333 5.22 7.62 5.22C8.92667 5.22 10.0533 5.50667 11 6.08C11.96 6.65333 12.6733 7.4 13.14 8.32L11.02 9.78C10.78 9.24667 10.4667 8.82667 10.08 8.52C9.69333 8.2 9.28 7.98 8.84 7.86C8.4 7.72667 7.96667 7.66 7.54 7.66C6.84667 7.66 6.24 7.8 5.72 8.08C5.21333 8.36 4.78667 8.72667 4.44 9.18C4.09333 9.63333 3.83333 10.14 3.66 10.7C3.5 11.26 3.42 11.82 3.42 12.38C3.42 13.0067 3.52 13.6133 3.72 14.2C3.92 14.7733 4.2 15.2867 4.56 15.74C4.93333 16.18 5.37333 16.5333 5.88 16.8C6.4 17.0533 6.96667 17.18 7.58 17.18C8.02 17.18 8.46667 17.1067 8.92 16.96C9.37333 16.8133 9.79333 16.58 10.18 16.26C10.5667 15.94 10.8667 15.5267 11.08 15.02L13.34 16.32C13.06 17.0267 12.6 17.6267 11.96 18.12C11.3333 18.6133 10.6267 18.9867 9.84 19.24C9.05333 19.4933 8.27333 19.62 7.5 19.62C6.48667 19.62 5.56 19.4133 4.72 19C3.88 18.5733 3.15333 18.0133 2.54 17.32C1.94 16.6133 1.46667 15.8267 1.12 14.96C0.786667 14.08 0.62 13.1933 0.62 12.3ZM21.1709 11.34C20.3576 11.34 19.6309 11.5 18.9909 11.82C18.3509 12.1267 17.8909 12.5733 17.6109 13.16V19.5H14.9309V9.02H17.3909V11.26C17.7643 10.54 18.2376 9.97333 18.8109 9.56C19.3843 9.14667 19.9909 8.92 20.6309 8.88C20.7776 8.88 20.8909 8.88 20.9709 8.88C21.0509 8.88 21.1176 8.88667 21.1709 8.9V11.34ZM22.6653 19.5V9.02H25.3453V19.5H22.6653ZM22.6653 7.56V4.9H25.3453V7.56H22.6653ZM31.623 19.7C30.7296 19.7 29.8763 19.5533 29.063 19.26C28.2496 18.9667 27.5496 18.5333 26.963 17.96L27.923 16.22C28.5496 16.7267 29.163 17.1 29.763 17.34C30.3763 17.58 30.963 17.7 31.523 17.7C32.043 17.7 32.4563 17.6067 32.763 17.42C33.083 17.2333 33.243 16.9533 33.243 16.58C33.243 16.3267 33.1563 16.1333 32.983 16C32.8096 15.8533 32.5563 15.7267 32.223 15.62C31.903 15.5133 31.5096 15.3933 31.043 15.26C30.2696 15.0067 29.623 14.76 29.103 14.52C28.583 14.28 28.1896 13.98 27.923 13.62C27.6696 13.2467 27.543 12.7733 27.543 12.2C27.543 11.5067 27.7163 10.9133 28.063 10.42C28.423 9.91333 28.9163 9.52 29.543 9.24C30.183 8.96 30.9296 8.82 31.783 8.82C32.5296 8.82 33.2363 8.94 33.903 9.18C34.5696 9.40667 35.1763 9.78 35.723 10.3L34.643 12C34.1096 11.5867 33.603 11.2867 33.123 11.1C32.643 10.9 32.1563 10.8 31.663 10.8C31.383 10.8 31.1163 10.8333 30.863 10.9C30.623 10.9667 30.423 11.08 30.263 11.24C30.1163 11.3867 30.043 11.6 30.043 11.88C30.043 12.1333 30.1096 12.3333 30.243 12.48C30.3896 12.6133 30.603 12.7333 30.883 12.84C31.1763 12.9467 31.5296 13.0667 31.943 13.2C32.783 13.44 33.4896 13.6867 34.063 13.94C34.6496 14.1933 35.0896 14.5067 35.383 14.88C35.6763 15.24 35.823 15.74 35.823 16.38C35.823 17.42 35.443 18.2333 34.683 18.82C33.923 19.4067 32.903 19.7 31.623 19.7ZM43.8672 18.96C43.6405 19.0533 43.3672 19.16 43.0472 19.28C42.7272 19.4 42.3805 19.4933 42.0072 19.56C41.6472 19.64 41.2805 19.68 40.9072 19.68C40.4139 19.68 39.9605 19.5933 39.5472 19.42C39.1339 19.2467 38.8005 18.9733 38.5472 18.6C38.3072 18.2133 38.1872 17.7133 38.1872 17.1V11.08H36.8072V9.02H38.1872V5.62H40.8672V9.02H43.0672V11.08H40.8672V16.2C40.8805 16.56 40.9805 16.82 41.1672 16.98C41.3539 17.14 41.5872 17.22 41.8672 17.22C42.1472 17.22 42.4205 17.1733 42.6872 17.08C42.9539 16.9867 43.1672 16.9067 43.3272 16.84L43.8672 18.96ZM45.263 19.5V9.02H47.943V19.5H45.263ZM45.263 7.56V4.9H47.943V7.56H45.263ZM49.6406 16.4C49.6406 15.72 49.8273 15.1267 50.2006 14.62C50.5873 14.1 51.1206 13.7 51.8006 13.42C52.4806 13.14 53.2606 13 54.1406 13C54.5806 13 55.0273 13.0333 55.4806 13.1C55.934 13.1667 56.3273 13.2733 56.6606 13.42V12.86C56.6606 12.1933 56.4606 11.68 56.0606 11.32C55.674 10.96 55.094 10.78 54.3206 10.78C53.7473 10.78 53.2006 10.88 52.6806 11.08C52.1606 11.28 51.614 11.5733 51.0406 11.96L50.1806 10.2C50.874 9.74667 51.5806 9.40667 52.3006 9.18C53.034 8.95333 53.8006 8.84 54.6006 8.84C56.094 8.84 57.254 9.21333 58.0806 9.96C58.9206 10.7067 59.3406 11.7733 59.3406 13.16V16.5C59.3406 16.78 59.3873 16.98 59.4806 17.1C59.5873 17.22 59.754 17.2933 59.9806 17.32V19.5C59.7406 19.54 59.5206 19.5733 59.3206 19.6C59.134 19.6267 58.974 19.64 58.8406 19.64C58.3073 19.64 57.9006 19.52 57.6206 19.28C57.354 19.04 57.1873 18.7467 57.1206 18.4L57.0606 17.86C56.6073 18.4467 56.0406 18.9 55.3606 19.22C54.6806 19.54 53.9873 19.7 53.2806 19.7C52.5873 19.7 51.9606 19.56 51.4006 19.28C50.854 18.9867 50.4206 18.5933 50.1006 18.1C49.794 17.5933 49.6406 17.0267 49.6406 16.4ZM56.1606 16.94C56.3073 16.78 56.4273 16.62 56.5206 16.46C56.614 16.3 56.6606 16.1533 56.6606 16.02V14.96C56.3406 14.8267 55.994 14.7267 55.6206 14.66C55.2473 14.58 54.894 14.54 54.5606 14.54C53.8673 14.54 53.294 14.6933 52.8406 15C52.4006 15.2933 52.1806 15.6867 52.1806 16.18C52.1806 16.4467 52.254 16.7 52.4006 16.94C52.5473 17.18 52.7606 17.3733 53.0406 17.52C53.3206 17.6667 53.654 17.74 54.0406 17.74C54.4406 17.74 54.834 17.6667 55.2206 17.52C55.6073 17.36 55.9206 17.1667 56.1606 16.94ZM71.585 19.5H68.905V13.62C68.905 12.78 68.7583 12.1667 68.465 11.78C68.1717 11.3933 67.765 11.2 67.245 11.2C66.885 11.2 66.5183 11.2933 66.145 11.48C65.785 11.6667 65.4583 11.9267 65.165 12.26C64.8717 12.58 64.6583 12.9533 64.525 13.38V19.5H61.845V9.02H64.265V10.96C64.5317 10.5067 64.8717 10.1267 65.285 9.82C65.6983 9.5 66.1717 9.26 66.705 9.1C67.2517 8.92667 67.825 8.84 68.425 8.84C69.0783 8.84 69.6117 8.96 70.025 9.2C70.4517 9.42667 70.7717 9.74 70.985 10.14C71.2117 10.5267 71.365 10.9667 71.445 11.46C71.5383 11.9533 71.585 12.4533 71.585 12.96V19.5ZM78.7753 19.7C77.9353 19.7 77.1753 19.56 76.4953 19.28C75.8153 18.9867 75.2353 18.5933 74.7553 18.1C74.2753 17.5933 73.902 17.02 73.6353 16.38C73.382 15.7267 73.2553 15.04 73.2553 14.32C73.2553 13.32 73.4753 12.4067 73.9153 11.58C74.3686 10.7533 75.0086 10.0933 75.8353 9.6C76.6753 9.09333 77.662 8.84 78.7953 8.84C79.942 8.84 80.922 9.09333 81.7353 9.6C82.5486 10.0933 83.1686 10.7533 83.5953 11.58C84.0353 12.3933 84.2553 13.2733 84.2553 14.22C84.2553 14.38 84.2486 14.5467 84.2353 14.72C84.222 14.88 84.2086 15.0133 84.1953 15.12H76.0953C76.1486 15.6533 76.302 16.12 76.5553 16.52C76.822 16.92 77.1553 17.2267 77.5553 17.44C77.9686 17.64 78.4086 17.74 78.8753 17.74C79.4086 17.74 79.9086 17.6133 80.3753 17.36C80.8553 17.0933 81.182 16.7467 81.3553 16.32L83.6553 16.96C83.402 17.4933 83.0353 17.9667 82.5553 18.38C82.0886 18.7933 81.5353 19.12 80.8953 19.36C80.2553 19.5867 79.5486 19.7 78.7753 19.7ZM76.0353 13.42H81.5153C81.462 12.8867 81.3086 12.4267 81.0553 12.04C80.8153 11.64 80.4953 11.3333 80.0953 11.12C79.6953 10.8933 79.2486 10.78 78.7553 10.78C78.2753 10.78 77.8353 10.8933 77.4353 11.12C77.0486 11.3333 76.7286 11.64 76.4753 12.04C76.2353 12.4267 76.0886 12.8867 76.0353 13.42ZM94.1877 5.3H96.9877L102.208 19.5H99.3677L98.0477 15.96H93.0877L91.7877 19.5H88.9477L94.1877 5.3ZM97.5477 14.02L95.5877 8.16L93.5477 14.02H97.5477ZM102.805 17.86L108.585 10.9H103.045V9.02H111.465V10.66L105.725 17.62H111.565V19.5H102.805V17.86ZM118.053 19.7C117.213 19.7 116.453 19.56 115.773 19.28C115.093 18.9867 114.513 18.5933 114.033 18.1C113.553 17.5933 113.179 17.02 112.913 16.38C112.659 15.7267 112.533 15.04 112.533 14.32C112.533 13.32 112.753 12.4067 113.193 11.58C113.646 10.7533 114.286 10.0933 115.113 9.6C115.953 9.09333 116.939 8.84 118.073 8.84C119.219 8.84 120.199 9.09333 121.013 9.6C121.826 10.0933 122.446 10.7533 122.873 11.58C123.313 12.3933 123.533 13.2733 123.533 14.22C123.533 14.38 123.526 14.5467 123.513 14.72C123.499 14.88 123.486 15.0133 123.473 15.12H115.373C115.426 15.6533 115.579 16.12 115.833 16.52C116.099 16.92 116.433 17.2267 116.833 17.44C117.246 17.64 117.686 17.74 118.153 17.74C118.686 17.74 119.186 17.6133 119.653 17.36C120.133 17.0933 120.459 16.7467 120.633 16.32L122.933 16.96C122.679 17.4933 122.313 17.9667 121.833 18.38C121.366 18.7933 120.813 19.12 120.173 19.36C119.533 19.5867 118.826 19.7 118.053 19.7ZM115.313 13.42H120.793C120.739 12.8867 120.586 12.4267 120.333 12.04C120.093 11.64 119.773 11.3333 119.373 11.12C118.973 10.8933 118.526 10.78 118.033 10.78C117.553 10.78 117.113 10.8933 116.713 11.12C116.326 11.3333 116.006 11.64 115.753 12.04C115.513 12.4267 115.366 12.8867 115.313 13.42ZM127.692 19.5L123.832 9.02H126.612L129.252 17.06L131.912 9.02H134.452L130.612 19.5H127.692ZM140.377 19.7C139.537 19.7 138.777 19.56 138.097 19.28C137.417 18.9867 136.837 18.5933 136.357 18.1C135.877 17.5933 135.504 17.02 135.237 16.38C134.984 15.7267 134.857 15.04 134.857 14.32C134.857 13.32 135.077 12.4067 135.517 11.58C135.97 10.7533 136.61 10.0933 137.437 9.6C138.277 9.09333 139.264 8.84 140.397 8.84C141.544 8.84 142.524 9.09333 143.337 9.6C144.15 10.0933 144.77 10.7533 145.197 11.58C145.637 12.3933 145.857 13.2733 145.857 14.22C145.857 14.38 145.85 14.5467 145.837 14.72C145.824 14.88 145.81 15.0133 145.797 15.12H137.697C137.75 15.6533 137.904 16.12 138.157 16.52C138.424 16.92 138.757 17.2267 139.157 17.44C139.57 17.64 140.01 17.74 140.477 17.74C141.01 17.74 141.51 17.6133 141.977 17.36C142.457 17.0933 142.784 16.7467 142.957 16.32L145.257 16.96C145.004 17.4933 144.637 17.9667 144.157 18.38C143.69 18.7933 143.137 19.12 142.497 19.36C141.857 19.5867 141.15 19.7 140.377 19.7ZM137.637 13.42H143.117C143.064 12.8867 142.91 12.4267 142.657 12.04C142.417 11.64 142.097 11.3333 141.697 11.12C141.297 10.8933 140.85 10.78 140.357 10.78C139.877 10.78 139.437 10.8933 139.037 11.12C138.65 11.3333 138.33 11.64 138.077 12.04C137.837 12.4267 137.69 12.8867 137.637 13.42ZM146.85 14.26C146.85 13.2467 147.05 12.3333 147.45 11.52C147.85 10.6933 148.403 10.04 149.11 9.56C149.816 9.08 150.623 8.84 151.53 8.84C152.303 8.84 152.996 9.03333 153.61 9.42C154.236 9.79333 154.723 10.2733 155.07 10.86V4.9H157.75V16.5C157.75 16.78 157.796 16.98 157.89 17.1C157.983 17.22 158.143 17.2933 158.37 17.32V19.5C157.903 19.5933 157.523 19.64 157.23 19.64C156.75 19.64 156.35 19.52 156.03 19.28C155.723 19.04 155.55 18.7267 155.51 18.34L155.47 17.68C155.083 18.3333 154.556 18.8333 153.89 19.18C153.236 19.5267 152.55 19.7 151.83 19.7C151.11 19.7 150.443 19.56 149.83 19.28C149.23 19 148.703 18.6133 148.25 18.12C147.81 17.6267 147.463 17.0533 147.21 16.4C146.97 15.7333 146.85 15.02 146.85 14.26ZM155.07 15.66V13.16C154.936 12.7733 154.723 12.4267 154.43 12.12C154.136 11.8133 153.81 11.5733 153.45 11.4C153.09 11.2133 152.73 11.12 152.37 11.12C151.956 11.12 151.583 11.2067 151.25 11.38C150.916 11.5533 150.623 11.7867 150.37 12.08C150.13 12.3733 149.943 12.7133 149.81 13.1C149.69 13.4867 149.63 13.8933 149.63 14.32C149.63 14.7467 149.696 15.1533 149.83 15.54C149.976 15.9133 150.183 16.24 150.45 16.52C150.716 16.8 151.023 17.02 151.37 17.18C151.73 17.34 152.116 17.42 152.53 17.42C152.783 17.42 153.036 17.38 153.29 17.3C153.556 17.2067 153.803 17.0867 154.03 16.94C154.27 16.78 154.476 16.5933 154.65 16.38C154.836 16.1533 154.976 15.9133 155.07 15.66ZM165.22 19.7C164.367 19.7 163.6 19.56 162.92 19.28C162.24 18.9867 161.66 18.5867 161.18 18.08C160.713 17.5733 160.353 16.9933 160.1 16.34C159.847 15.6867 159.72 15 159.72 14.28C159.72 13.5467 159.847 12.8533 160.1 12.2C160.353 11.5467 160.713 10.9667 161.18 10.46C161.66 9.95333 162.24 9.56 162.92 9.28C163.6 8.98667 164.367 8.84 165.22 8.84C166.073 8.84 166.833 8.98667 167.5 9.28C168.18 9.56 168.76 9.95333 169.24 10.46C169.72 10.9667 170.08 11.5467 170.32 12.2C170.573 12.8533 170.7 13.5467 170.7 14.28C170.7 15 170.573 15.6867 170.32 16.34C170.08 16.9933 169.72 17.5733 169.24 18.08C168.773 18.5867 168.2 18.9867 167.52 19.28C166.84 19.56 166.073 19.7 165.22 19.7ZM162.48 14.28C162.48 14.8933 162.6 15.44 162.84 15.92C163.08 16.3867 163.407 16.7533 163.82 17.02C164.233 17.2867 164.7 17.42 165.22 17.42C165.727 17.42 166.187 17.2867 166.6 17.02C167.013 16.74 167.34 16.3667 167.58 15.9C167.833 15.42 167.96 14.8733 167.96 14.26C167.96 13.66 167.833 13.12 167.58 12.64C167.34 12.16 167.013 11.7867 166.6 11.52C166.187 11.2533 165.727 11.12 165.22 11.12C164.7 11.12 164.233 11.26 163.82 11.54C163.407 11.8067 163.08 12.18 162.84 12.66C162.6 13.1267 162.48 13.6667 162.48 14.28Z" fill="#464646"/>
</svg>
